<?xml version="1.0" standalone="no"?>
<!DOCTYPE svg PUBLIC "-//W3C//DTD SVG 20010904//EN"
 "http://www.w3.org/TR/2001/REC-SVG-20010904/DTD/svg10.dtd">
<svg version="1.0" xmlns="http://www.w3.org/2000/svg"
 width="1500.000000pt" height="1500.000000pt" viewBox="0 0 1500.000000 1500.000000"
 preserveAspectRatio="xMidYMid meet">
<metadata>
Created by potrace 1.14, written by Peter Selinger 2001-2017
</metadata>
<g transform="translate(0.000000,1500.000000) scale(0.100000,-0.100000)"
fill="#000000" stroke="none">
<path d="M8050 14789 c-30 -11 -69 -24 -86 -30 -17 -5 -44 -24 -60 -42 -16
-17 -72 -79 -124 -137 -51 -58 -105 -118 -119 -134 -15 -16 -53 -58 -86 -93
-33 -36 -67 -75 -75 -87 -8 -13 -34 -43 -57 -67 -23 -24 -55 -61 -72 -83 -17
-21 -55 -64 -83 -96 -29 -31 -75 -83 -103 -115 -27 -33 -77 -88 -110 -123 -33
-35 -67 -74 -75 -86 -8 -12 -31 -39 -50 -60 -19 -21 -44 -48 -55 -61 -11 -12
-53 -59 -93 -103 -40 -44 -92 -104 -115 -132 -31 -38 -53 -54 -84 -62 -24 -7
-43 -16 -43 -20 0 -4 -6 -8 -12 -8 -16 -1 -148 -125 -148 -139 0 -6 -10 -17
-22 -25 -20 -13 -43 -12 -198 10 -96 13 -197 27 -223 31 -27 3 -51 12 -54 19
-6 15 22 206 48 331 11 51 19 105 19 120 0 16 0 140 0 276 0 137 -2 251 -4
255 -2 4 -7 45 -10 92 -4 47 -9 96 -11 110 -12 67 -23 117 -32 140 -6 14 -13
54 -17 90 -12 104 -46 165 -106 188 -49 19 -66 3 -199 -182 -30 -41 -67 -89
-82 -106 -16 -17 -35 -45 -44 -64 -11 -24 -26 -36 -53 -45 -72 -22 -283 -195
-408 -334 -76 -83 -181 -238 -217 -317 -29 -63 -57 -201 -57 -276 0 -28 -3
-66 -6 -83 -6 -29 -9 -31 -48 -31 -23 0 -67 4 -97 10 -71 13 -214 32 -579 80
-47 6 -92 13 -100 15 -8 2 -51 9 -95 14 -174 22 -325 42 -415 56 -52 8 -140
19 -195 25 -135 16 -162 25 -215 74 -25 23 -62 55 -83 70 -20 15 -48 37 -60
49 -142 136 -310 252 -438 302 -91 36 -292 92 -374 105 -206 31 -479 125 -543
187 -7 7 -16 13 -20 13 -4 1 -25 4 -48 9 -34 6 -45 4 -68 -14 -44 -35 -56
-169 -30 -325 l5 -35 -58 -19 c-100 -32 -200 -83 -288 -146 -131 -95 -135
-117 -40 -207 83 -80 169 -205 218 -318 58 -134 75 -172 117 -256 37 -73 37
-76 19 -88 -11 -6 -17 -16 -14 -20 3 -5 -11 -31 -32 -58 -20 -26 -64 -84 -97
-128 -100 -130 -151 -205 -192 -285 -22 -41 -53 -94 -68 -117 -15 -23 -30 -59
-33 -81 -5 -35 -1 -43 32 -75 21 -20 45 -39 54 -42 9 -3 35 -36 58 -74 37 -60
79 -103 205 -212 l27 -24 -38 -65 c-156 -265 -158 -271 -117 -307 17 -14 40
-23 62 -23 34 0 92 -21 232 -86 41 -19 75 -34 78 -34 2 0 32 -13 66 -29 35
-15 82 -34 104 -41 55 -17 72 -28 58 -37 -19 -13 -73 -122 -110 -221 -58 -155
-102 -343 -112 -488 -14 -194 1 -222 107 -209 36 4 81 20 129 46 39 21 72 36
72 32 0 -12 -48 -384 -70 -548 -11 -82 -29 -226 -40 -320 -11 -93 -27 -222
-35 -285 -8 -63 -24 -191 -36 -285 -11 -93 -24 -199 -29 -235 -57 -445 -79
-616 -110 -865 -5 -38 -20 -160 -35 -270 -14 -110 -35 -272 -45 -360 -10 -88
-21 -176 -24 -195 -7 -42 -44 -325 -56 -430 -28 -235 -51 -407 -55 -418 -3 -9
-27 -13 -87 -11 -230 5 -360 57 -493 196 -87 92 -175 206 -175 226 0 6 -7 18
-16 28 -21 23 -114 210 -114 229 0 9 -4 20 -9 25 -9 10 -80 222 -88 264 -2 14
-6 28 -9 33 -3 4 -10 34 -15 65 -6 32 -15 81 -20 108 -29 148 -38 424 -19 527
6 28 10 72 10 99 0 39 -4 51 -26 68 -35 28 -66 26 -120 -5 l-44 -26 0 -1525
c0 -1521 0 -1525 20 -1551 139 -180 190 -242 263 -314 125 -124 267 -228 402
-296 49 -25 206 -78 258 -87 41 -8 39 1 21 -105 -2 -14 -8 -67 -14 -118 -12
-111 -15 -130 -40 -337 -11 -88 -25 -189 -30 -225 -23 -148 -53 -386 -80 -625
-11 -99 -25 -202 -30 -230 -5 -27 -16 -108 -25 -180 -8 -71 -20 -159 -25 -195
-20 -140 -22 -172 -10 -219 10 -42 21 -57 72 -100 33 -28 67 -51 76 -52 23 -1
47 -4 192 -27 69 -11 154 -23 190 -26 36 -4 92 -11 125 -16 33 -5 130 -19 215
-30 85 -11 211 -29 280 -40 69 -11 152 -22 185 -25 33 -3 101 -12 150 -20 50
-7 142 -21 205 -30 150 -21 155 -22 220 -30 30 -3 61 -9 68 -14 8 -5 -8 -32
-56 -92 -133 -164 -172 -228 -172 -284 0 -62 51 -131 114 -155 41 -15 166 -10
193 7 19 13 36 18 64 22 3 1 14 10 26 20 11 11 43 37 71 58 27 21 92 73 145
115 52 43 97 78 100 78 3 0 12 -6 19 -12 46 -44 130 -108 173 -133 28 -15 88
-54 135 -85 225 -151 311 -151 405 -4 50 78 48 115 -10 192 -25 33 -45 63 -45
68 0 4 -7 16 -17 26 -15 17 -14 18 15 18 18 0 62 -5 99 -10 161 -25 574 -83
643 -90 108 -12 654 -88 725 -101 33 -6 72 -12 87 -14 15 -2 56 -6 90 -10 74
-8 137 -24 158 -40 26 -20 137 -65 159 -65 12 0 36 -7 54 -16 25 -13 48 -15
113 -10 72 5 92 3 151 -18 37 -13 82 -27 98 -30 29 -6 158 14 220 34 46 15
216 -12 295 -47 56 -24 75 -28 140 -24 41 2 93 4 115 4 41 2 232 -21 405 -48
52 -9 212 -31 355 -50 143 -20 310 -43 370 -51 61 -9 173 -24 250 -34 77 -11
205 -28 285 -39 80 -12 197 -28 260 -36 63 -9 144 -20 180 -26 134 -20 429
-61 530 -74 120 -16 226 -30 320 -45 36 -6 184 -26 330 -46 271 -36 522 -70
575 -79 64 -11 396 -57 500 -70 61 -8 160 -21 220 -30 122 -18 293 -43 520
-74 83 -12 312 -44 510 -72 198 -28 453 -63 567 -79 113 -15 211 -31 216 -34
28 -17 128 56 117 86 -3 8 1 70 9 139 35 285 56 452 75 594 11 83 34 260 51
395 17 135 42 326 55 425 14 99 27 203 30 230 14 122 73 589 131 1030 13 105
27 208 29 230 3 22 18 141 35 265 16 124 38 294 49 378 20 148 22 154 56 194
19 23 35 45 35 50 0 4 9 28 20 51 11 24 22 58 24 75 3 17 7 35 9 39 10 17 -16
189 -34 225 -23 45 -24 104 -3 178 8 30 19 111 24 180 6 69 12 136 14 150 6
36 56 418 61 463 2 22 6 51 9 65 3 15 8 47 10 72 16 148 38 337 41 350 2 8 7
39 10 69 4 30 8 62 10 71 3 18 6 42 30 235 27 226 54 430 74 570 12 77 21 141
21 143 0 7 108 50 185 75 44 14 97 33 118 42 53 22 223 139 275 188 l42 41 0
267 c0 299 6 279 -78 279 -71 0 -400 45 -411 56 -8 8 9 172 38 374 6 36 14
101 20 145 6 44 17 130 26 190 8 61 24 187 35 280 11 94 23 186 25 205 3 19
10 71 15 115 22 184 30 237 35 246 4 5 2 9 -3 9 -15 0 -24 32 -12 44 7 7 10 4
10 -9 1 -19 1 -19 11 -2 5 9 17 17 25 17 29 0 149 135 207 232 l57 96 0 127
c0 124 -1 127 -21 122 -20 -5 -20 -5 -4 13 16 17 15 19 -2 29 -16 8 -42 9 -63
1 -3 -1 -8 -2 -12 -1 -5 0 -8 -7 -8 -16 0 -15 -2 -16 -10 -3 -8 12 -10 12 -16
-3 -3 -9 -12 -17 -20 -17 -9 0 4 22 31 55 24 31 52 69 60 85 18 34 20 70 4 70
-6 0 5 29 25 64 28 49 36 76 36 113 l0 48 -25 -30 c-13 -16 -27 -39 -31 -50
-8 -25 -140 -218 -207 -302 -35 -46 -55 -63 -72 -63 -13 0 -31 -10 -39 -22
-16 -22 -16 -22 -30 -3 -12 16 -17 18 -27 7 -11 -10 -7 -32 19 -117 52 -169
39 -228 -18 -82 -90 228 -149 330 -321 557 -138 183 -224 257 -404 347 -44 23
-93 48 -110 57 -16 9 -47 16 -67 16 -23 0 -45 7 -56 18 -21 21 -119 72 -138
72 -8 0 -14 -6 -14 -12 -1 -14 -2 -13 -65 78 -22 32 -48 66 -58 76 -16 17 -16
21 8 80 14 33 39 84 57 112 79 125 210 266 248 266 21 0 124 -49 117 -56 -3
-3 -14 -1 -24 4 -31 16 -103 22 -103 8 0 -7 -27 -52 -61 -100 -33 -47 -76
-115 -96 -149 -31 -55 -34 -66 -27 -107 4 -25 6 -50 5 -57 -1 -7 16 -24 38
-39 22 -14 43 -35 47 -46 3 -10 17 -23 30 -29 14 -5 23 -12 20 -17 -9 -14 22
-44 41 -38 17 6 73 93 73 115 0 6 -9 11 -21 11 -18 0 -16 5 18 44 32 37 40 42
52 31 25 -25 64 1 111 73 24 37 69 94 100 127 32 33 60 69 64 80 10 34 80 30
206 -11 119 -38 196 -70 205 -84 3 -4 29 -16 58 -26 54 -18 96 -53 259 -216
89 -89 137 -178 187 -343 16 -55 31 -89 31 -75 l2 25 8 -25 c4 -14 8 328 9
759 0 432 -3 789 -8 795 -5 6 -14 29 -21 51 -15 50 -68 171 -126 290 -77 159
-128 243 -229 380 -97 130 -275 327 -366 405 -35 30 -71 62 -79 71 -54 57
-294 214 -445 291 -201 103 -293 124 -352 83 -30 -21 -38 -87 -16 -147 16 -44
178 -273 243 -343 65 -70 172 -262 244 -440 21 -49 43 -103 51 -120 25 -55
104 -299 121 -375 16 -72 27 -163 40 -318 l7 -73 -44 6 c-24 4 -84 13 -134 20
-49 8 -119 17 -155 20 -36 4 -121 15 -190 25 -236 36 -395 59 -560 80 -91 12
-226 30 -300 41 -323 47 -414 60 -560 79 -214 28 -434 59 -500 70 -30 5 -98
14 -150 20 -168 20 -273 39 -282 52 -4 7 -8 20 -8 29 0 39 -64 141 -117 188
-79 70 -109 83 -206 83 l-82 0 -80 67 c-76 63 -222 188 -275 235 -14 12 -110
93 -215 181 -104 88 -246 207 -315 266 -69 58 -159 135 -201 170 -42 35 -158
134 -259 219 -100 85 -216 182 -256 215 -40 33 -220 184 -400 335 -427 359
-427 359 -441 360 -6 0 -33 11 -60 24 -69 35 -153 41 -223 15z m177 -81 c8 -7
29 -26 45 -43 29 -28 30 -32 25 -101 -3 -40 -8 -77 -12 -83 -3 -6 -28 -23 -55
-36 -92 -47 -190 -28 -240 45 -28 40 -14 138 25 178 17 17 41 35 55 41 36 14
138 13 157 -1z m383 -476 c80 -70 204 -178 275 -242 72 -63 147 -128 166 -145
20 -16 67 -58 105 -92 38 -33 92 -81 120 -105 58 -49 376 -329 444 -392 25
-22 73 -63 105 -90 33 -28 83 -70 110 -95 54 -49 76 -68 200 -176 44 -38 149
-130 234 -205 85 -74 165 -144 178 -155 21 -18 22 -22 10 -39 -13 -18 -19 -18
-73 -8 -32 7 -84 14 -114 18 -30 3 -84 10 -120 15 -36 6 -81 12 -100 14 -19 2
-50 7 -68 10 -18 3 -65 10 -105 15 -40 5 -98 13 -130 19 -32 5 -88 13 -125 16
-37 4 -85 10 -107 15 -22 5 -80 14 -130 19 -49 6 -117 16 -150 21 -68 12 -457
67 -525 75 -25 3 -56 7 -70 10 -21 4 -171 25 -295 40 -48 6 -183 25 -280 41
-49 7 -135 19 -190 25 -55 6 -102 12 -105 14 -3 2 -32 6 -65 10 -33 3 -87 10
-120 15 -33 6 -123 19 -200 29 -77 11 -187 27 -245 36 -58 9 -125 18 -150 20
-96 10 -93 8 -124 103 -16 48 -33 93 -38 99 -8 9 16 44 84 125 52 62 125 151
163 198 39 47 78 94 88 105 17 18 91 108 523 631 l151 183 29 -20 c80 -55 125
-71 183 -66 97 9 117 17 166 67 l48 49 51 -40 c28 -23 116 -98 196 -167z
m-3075 106 c-14 -18 -71 -73 -124 -123 -106 -97 -207 -203 -261 -275 -19 -25
-49 -60 -66 -77 -18 -18 -40 -43 -48 -55 -21 -30 -21 -4 0 27 10 15 12 25 6
25 -6 0 -16 -9 -22 -20 -6 -11 -15 -20 -21 -20 -6 0 2 18 18 40 15 22 34 40
41 40 7 0 11 4 8 8 -7 12 48 64 65 60 7 -2 21 12 30 29 9 18 19 30 23 26 3 -3
6 -1 6 5 0 13 65 79 165 167 37 32 79 76 93 97 16 25 32 38 47 38 12 0 30 9
40 20 29 32 29 23 0 -12z m-548 -593 c-11 -23 -27 -34 -27 -18 0 6 30 43 36
43 1 0 -3 -11 -9 -25z m-90 -152 c-4 -38 -18 -106 -31 -153 -36 -124 -56 -231
-56 -296 0 -73 -8 -64 -26 28 -20 101 -10 246 20 313 13 28 29 68 36 90 33
102 65 112 57 18z m1915 -465 c35 -40 68 -112 56 -123 -6 -6 -124 9 -241 31
-42 8 -91 14 -108 14 -27 0 -30 3 -23 23 10 32 19 41 66 66 119 61 191 58 250
-11z m4121 -544 c23 -4 48 -11 55 -17 20 -16 49 -78 57 -119 6 -33 5 -35 -17
-32 -12 2 -75 10 -138 19 -63 9 -139 21 -169 26 l-53 11 43 45 c24 25 55 49
69 55 39 16 84 26 98 22 8 -2 32 -7 55 -10z m-6458 -75 c139 -19 225 -40 314
-77 102 -43 227 -113 307 -174 l58 -43 -85 -6 c-46 -3 -115 -13 -154 -22 -38
-9 -108 -25 -155 -35 -234 -54 -362 -93 -476 -146 -135 -61 -185 -89 -227
-123 -16 -13 -33 -23 -38 -23 -6 0 -25 -11 -43 -25 -18 -14 -42 -25 -53 -25
-30 0 -129 -112 -187 -211 -52 -87 -92 -139 -110 -139 -5 0 -1 6 10 14 18 14
18 15 2 21 -10 4 -16 11 -13 16 9 13 -35 31 -61 25 -24 -6 -34 8 -11 17 8 3 7
7 -5 12 -11 4 -24 1 -33 -9 -11 -10 -12 -16 -4 -16 8 0 8 -4 2 -12 -6 -7 -13
-31 -16 -52 -4 -22 -12 -43 -19 -48 -10 -6 -10 -8 0 -8 6 0 12 -7 12 -15 0 -9
-6 -12 -15 -9 -8 4 -15 1 -15 -5 0 -6 -7 -8 -15 -5 -8 4 -15 2 -15 -4 0 -5 7
-15 15 -22 10 -9 15 -9 15 -1 0 6 5 11 10 11 6 0 10 -7 10 -15 0 -8 -7 -15
-15 -15 -8 0 -15 -5 -15 -10 0 -6 -6 -10 -12 -9 -30 4 -37 -2 -34 -28 5 -39 6
-41 16 -18 8 18 9 17 9 -8 1 -16 -3 -26 -9 -22 -6 4 -8 -3 -6 -17 3 -13 5 -27
5 -31 1 -4 14 -12 29 -18 19 -7 32 -21 42 -47 7 -20 15 -32 17 -25 2 6 -3 25
-11 42 -9 16 -16 38 -16 47 0 27 34 93 48 94 6 0 12 4 12 9 0 4 14 25 30 46
20 25 28 45 24 57 -4 13 0 18 15 18 12 0 21 -2 21 -4 0 -2 -12 -30 -26 -61
-26 -56 -46 -123 -98 -322 -23 -86 -46 -245 -62 -426 -6 -73 -5 -79 20 -112
34 -44 91 -63 135 -45 17 7 31 16 31 21 0 5 39 27 88 51 48 23 108 56 133 74
28 19 94 47 165 69 66 21 162 50 214 67 52 16 155 58 228 94 73 35 135 64 139
64 16 0 194 97 243 133 76 55 371 354 392 397 68 138 137 305 147 355 18 93
19 105 20 180 l1 69 41 -39 c48 -47 129 -154 185 -243 21 -35 53 -87 71 -115
60 -96 119 -221 147 -312 16 -49 30 -93 32 -96 6 -10 -78 -52 -111 -56 -26 -2
-34 1 -43 22 -6 14 -19 25 -27 25 -9 0 -13 -4 -10 -10 3 -5 -3 -10 -13 -10
-11 0 -22 9 -25 20 -4 15 -14 20 -36 20 -17 0 -31 -5 -31 -11 0 -5 -4 -8 -10
-4 -5 3 -7 12 -3 20 4 11 -2 15 -20 15 -27 0 -45 -16 -26 -22 6 -2 12 -16 12
-30 0 -15 6 -29 13 -32 8 -3 14 -17 14 -31 0 -14 5 -25 10 -25 6 0 10 7 10 16
0 8 5 12 10 9 7 -4 7 -12 0 -25 -13 -25 -13 -30 5 -30 8 0 15 -5 15 -10 0 -13
-208 -150 -227 -150 -7 0 -17 9 -23 21 -7 11 -17 18 -24 16 -8 -3 -18 9 -26
29 -12 31 -17 34 -52 32 -21 -1 -41 2 -44 5 -4 3 -18 0 -33 -8 -29 -14 -39
-53 -16 -62 17 -6 47 -62 40 -73 -3 -4 2 -11 11 -14 9 -4 14 -9 11 -13 -4 -3
-2 -14 3 -23 8 -15 -9 -33 -108 -111 -64 -51 -173 -148 -241 -216 -117 -117
-141 -136 -141 -113 0 6 -8 10 -17 11 -11 0 -13 3 -5 6 8 3 4 11 -13 24 -13
11 -24 23 -23 27 1 4 -2 28 -6 55 -7 39 -12 47 -30 47 -19 0 -21 -4 -18 -35 2
-19 8 -38 13 -41 18 -11 8 -60 -20 -97 l-29 -37 -30 34 c-26 30 -32 33 -42 20
-17 -19 -54 -19 -46 1 3 9 0 15 -8 15 -8 0 -20 9 -27 21 -9 13 -20 18 -31 14
-25 -10 -22 -28 3 -22 13 3 19 1 16 -6 -2 -7 -20 -12 -39 -13 -19 -1 -40 -4
-47 -8 -16 -11 -13 -29 4 -22 8 3 15 1 15 -4 0 -6 -4 -10 -10 -10 -5 0 -10 -4
-10 -10 0 -5 6 -10 14 -10 7 0 16 -8 18 -18 3 -10 15 -18 27 -19 12 -1 19 2
16 8 -4 5 -1 9 5 9 7 0 9 -8 4 -22 -9 -30 -9 -33 0 -105 6 -44 13 -63 25 -66
10 -3 8 -5 -6 -6 -13 0 -24 -7 -25 -13 0 -7 -2 -19 -2 -25 -1 -7 -9 -22 -19
-33 -9 -11 -17 -24 -17 -29 0 -5 -7 -14 -15 -21 -9 -7 -13 -21 -10 -31 5 -14
1 -19 -15 -19 -13 0 -24 -9 -30 -25 -5 -14 -14 -25 -20 -25 -16 0 -42 -70 -36
-95 4 -15 0 -28 -11 -36 -15 -13 -16 -11 -9 14 3 15 2 27 -3 27 -11 0 -41 -73
-41 -100 0 -11 -7 -20 -15 -20 -8 0 -15 -7 -15 -15 0 -8 -7 -15 -16 -15 -9 0
-14 7 -13 18 1 9 -2 26 -6 36 -6 13 -4 21 3 24 8 2 10 17 6 41 -4 27 -2 42 10
53 9 10 12 18 5 20 -7 2 -7 12 -1 28 5 14 10 29 10 33 0 5 8 14 18 21 10 8 14
18 9 25 -6 10 -3 11 14 2 12 -7 26 -9 31 -6 11 7 4 86 -8 95 -4 3 -16 23 -27
45 -10 22 -25 48 -33 57 -8 10 -12 24 -9 32 4 9 -1 19 -9 24 -9 5 -14 13 -12
17 1 5 -7 9 -19 10 -13 1 -23 -2 -23 -7 0 -5 -9 -6 -20 -3 -11 4 -20 2 -20 -4
0 -14 -27 -15 -32 -1 -1 5 -8 -2 -15 -15 -6 -14 -7 -23 -2 -19 5 3 9 -2 9 -10
0 -9 -7 -16 -15 -16 -23 0 -18 -14 16 -44 26 -24 30 -34 27 -66 -2 -23 1 -36
7 -34 5 2 10 -7 10 -20 0 -18 -3 -22 -12 -14 -10 8 -13 6 -13 -4 0 -8 6 -20
13 -27 10 -11 10 -14 0 -18 -7 -3 -13 -12 -13 -21 0 -24 -29 -101 -30 -79 0 9
-6 16 -12 15 -8 -2 -12 6 -10 20 1 14 -3 22 -9 20 -6 -2 -10 -8 -9 -13 1 -5
-8 -12 -19 -17 -14 -5 -21 -16 -21 -32 0 -14 -5 -28 -10 -31 -13 -8 13 -35 35
-35 9 0 13 -5 10 -10 -4 -6 -11 -8 -16 -5 -14 9 -50 -5 -48 -18 3 -15 -6 -38
-35 -99 -15 -30 -20 -50 -13 -57 6 -6 -3 -17 -25 -32 -35 -23 -58 -75 -64
-140 -1 -15 -7 -36 -13 -47 -6 -11 -15 -60 -21 -108 -5 -49 -14 -103 -19 -120
-5 -18 -8 -54 -6 -80 1 -27 -1 -58 -6 -69 -4 -11 -8 -16 -8 -11 -1 5 -7 3 -15
-4 -8 -6 -12 -18 -9 -26 4 -10 0 -12 -11 -8 -16 6 -17 31 -1 67 9 20 1 32 -14
22 -6 -3 -11 -28 -11 -55 0 -45 -2 -48 -25 -46 -25 1 -36 16 -12 16 8 0 7 3
-3 9 -19 13 -33 3 -27 -20 8 -31 -20 -22 -35 11 -8 18 -21 30 -33 31 -11 0
-14 3 -7 6 17 7 15 23 -3 23 -8 0 -15 -4 -15 -10 0 -5 -7 -7 -15 -4 -8 4 -15
1 -15 -6 0 -10 -3 -10 -15 0 -12 10 -15 10 -15 -4 0 -9 -4 -16 -9 -16 -5 0
-17 -7 -25 -16 -13 -12 -14 -20 -5 -36 8 -16 8 -23 -2 -29 -12 -7 -11 -11 1
-19 10 -7 11 -10 2 -10 -15 0 -7 -40 17 -85 8 -16 27 -57 41 -90 37 -89 47
-103 60 -85 6 10 10 11 10 3 0 -20 14 -15 25 9 12 25 38 38 29 14 -4 -10 -1
-16 9 -16 13 0 22 17 32 55 1 6 3 21 4 35 1 20 3 22 11 10 9 -13 11 -13 19 0
12 18 24 8 15 -13 -3 -10 -12 -13 -22 -9 -14 4 -15 3 -6 -9 16 -21 9 -62 -30
-163 -19 -50 -38 -102 -41 -116 -4 -14 -16 -37 -26 -52 -11 -14 -19 -35 -19
-46 0 -12 -9 -23 -21 -27 -11 -4 -26 -20 -33 -37 -7 -16 -17 -30 -22 -31 -5
-1 -10 -11 -12 -22 -1 -11 -9 -23 -17 -28 -22 -12 -20 -77 3 -77 12 0 14 -2 4
-8 -9 -7 -10 -15 -3 -35 6 -15 7 -38 1 -56 -17 -62 -113 -261 -125 -261 -7 0
-16 12 -20 28 -10 41 -76 172 -87 172 -5 0 -6 5 -3 10 3 6 -1 13 -9 16 -9 3
-16 15 -16 25 0 21 -16 26 -23 7 -3 -10 -9 -10 -28 0 -34 18 -79 1 -80 -30 -1
-13 -4 -34 -6 -48 -8 -47 -3 -87 17 -131 11 -24 20 -52 20 -61 0 -10 5 -18 10
-18 6 0 10 -7 10 -15 0 -9 7 -15 16 -13 17 3 21 -3 45 -57 17 -39 49 -75 66
-75 15 0 -9 -49 -124 -253 -56 -98 -73 -120 -73 -93 0 37 -74 58 -91 25 -26
-47 -40 -91 -35 -104 8 -21 36 -19 37 3 0 11 2 12 6 4 3 -7 -1 -20 -9 -29 -9
-12 -10 -17 -2 -20 34 -11 -35 -115 -173 -262 -159 -169 -332 -341 -343 -341
-6 0 -60 -30 -121 -66 -60 -37 -112 -64 -115 -61 -6 5 8 123 46 412 11 83 27
204 35 270 18 146 33 268 41 315 5 37 15 106 38 290 34 263 100 780 147 1143
27 214 51 392 53 395 2 4 7 36 10 72 4 36 11 97 17 135 23 164 86 654 94 730
7 70 14 125 30 235 7 52 19 134 25 182 13 96 26 116 82 124 51 8 164 89 263
190 71 72 94 90 109 84 13 -4 16 -9 8 -14 -9 -5 -9 -12 1 -27 10 -16 9 -21 -1
-28 -14 -8 -6 -41 10 -41 5 0 7 -4 4 -9 -3 -5 1 -25 9 -45 8 -20 12 -36 8 -36
-4 0 -1 -6 5 -12 13 -13 132 -20 132 -8 0 3 -6 12 -12 19 -11 11 -10 12 1 6
11 -6 12 -1 6 31 -4 21 -7 49 -7 61 1 11 -5 24 -13 27 -8 3 -12 12 -9 20 3 8
0 17 -5 21 -6 3 -9 10 -6 15 9 14 -14 50 -30 50 -8 0 -15 6 -15 14 0 8 -3 16
-7 19 -5 2 -2 2 6 0 10 -2 12 5 9 27 -3 20 0 30 8 30 8 0 11 6 8 14 -3 7 9 35
25 62 17 27 36 60 43 74 58 121 100 216 121 277 15 40 51 121 81 180 80 159
136 307 152 403 3 14 17 36 32 48 15 13 65 58 111 100 117 108 254 202 439
304 75 42 105 45 237 27z m1095 -154 c63 -8 231 -30 372 -50 142 -19 372 -51
510 -69 460 -63 507 -72 509 -95 1 -13 2 -13 6 2 8 30 23 18 23 -18 0 -19 4
-35 9 -35 5 0 7 10 3 22 -4 17 -2 20 11 15 11 -4 17 -1 17 8 0 8 5 15 10 15 6
0 10 -3 10 -7 0 -5 33 -8 73 -8 39 0 113 -6 162 -13 301 -42 460 -64 530 -72
44 -6 121 -17 170 -24 50 -8 150 -22 224 -32 73 -10 139 -23 146 -30 7 -7 15
-10 18 -7 4 3 31 2 62 -2 54 -6 71 -19 38 -28 -11 -3 -7 -5 10 -6 15 0 27 4
27 9 0 6 20 10 45 10 38 0 45 -3 45 -20 0 -23 18 -27 26 -6 7 19 57 15 477
-45 76 -10 141 -19 143 -19 3 0 2 -9 -1 -20 -4 -11 -2 -20 4 -20 6 0 11 7 11
15 0 15 26 20 54 9 21 -8 20 -31 -1 -43 -17 -10 -17 -10 -1 -11 10 0 15 -6 13
-12 -3 -7 4 -24 15 -38 15 -19 20 -21 20 -8 0 9 -4 18 -9 20 -4 2 -6 10 -2 18
5 12 11 9 33 -13 27 -27 27 -28 8 -45 -24 -20 -26 -32 -5 -32 8 0 15 5 15 10
0 6 13 10 29 10 16 0 31 6 35 15 9 23 36 18 37 -7 1 -21 2 -21 6 -3 3 11 10
23 17 28 8 5 7 10 -4 18 -12 8 -11 9 7 4 23 -6 41 9 23 20 -15 9 -2 25 14 19
8 -3 17 0 21 5 11 19 25 1 19 -23 -5 -20 -1 -24 23 -29 15 -3 32 -1 38 4 5 5
-2 9 -20 10 l-30 1 30 7 c22 5 32 2 37 -9 5 -12 8 -10 14 8 3 12 13 22 20 22
17 0 19 -20 2 -21 -7 0 -2 -5 11 -10 18 -7 28 -6 40 5 17 15 88 11 271 -13 41
-6 145 -20 230 -31 85 -11 207 -29 270 -39 63 -11 149 -22 190 -26 41 -4 91
-11 110 -15 19 -5 109 -19 200 -30 203 -26 210 -27 210 -44 0 -7 11 -19 25
-26 13 -7 24 -16 23 -19 -1 -3 3 -17 9 -31 6 -14 13 -46 17 -71 5 -37 3 -49
-14 -69 -11 -13 -20 -32 -20 -44 0 -16 -2 -18 -9 -7 -6 10 -12 3 -21 -25 -7
-22 -18 -42 -24 -46 -8 -5 -8 -13 1 -27 10 -16 9 -18 -8 -14 -22 6 -26 -16 -7
-35 9 -9 9 -12 -1 -12 -19 0 6 -30 35 -40 16 -6 21 -15 17 -28 -6 -26 11 -36
30 -18 8 8 17 12 21 9 3 -4 6 3 6 14 0 11 11 30 25 43 14 13 25 29 25 37 0 7
7 13 15 13 8 0 12 6 9 14 -3 8 -1 17 5 21 6 3 11 18 11 32 0 22 -4 25 -25 21
-15 -3 -25 -1 -25 7 0 7 11 10 30 7 29 -4 42 11 18 21 -8 3 -6 6 5 6 22 1 22
18 0 23 -12 2 -2 20 44 73 33 39 66 88 73 110 7 22 15 35 17 28 3 -8 16 -10
36 -7 27 4 29 3 14 -6 -9 -6 -15 -15 -12 -20 3 -5 1 -11 -5 -15 -14 -9 -13
-48 1 -43 7 2 19 22 28 44 l16 40 115 -13 c63 -7 149 -20 190 -28 42 -8 87
-15 100 -16 14 0 19 -3 13 -6 -16 -6 1 -41 29 -61 18 -13 18 -16 3 -38 -9 -14
-13 -29 -10 -34 3 -6 1 -10 -5 -10 -7 0 -10 -7 -7 -15 4 -8 1 -18 -5 -21 -8
-5 -5 -10 8 -15 17 -7 17 -8 2 -8 -10 -1 -18 -6 -18 -12 0 -6 7 -9 15 -5 20 7
19 -18 -1 -49 -9 -14 -12 -25 -6 -25 6 0 16 16 23 35 7 19 18 35 23 35 6 0 5
5 -2 12 -9 9 -4 16 19 30 17 11 34 17 37 14 3 -4 0 -6 -6 -6 -7 0 -12 -4 -12
-10 0 -5 12 -10 27 -10 14 0 24 -3 21 -6 -3 -3 5 -17 18 -31 15 -17 24 -38 24
-59 0 -19 5 -34 10 -34 6 0 10 -16 10 -36 0 -31 2 -35 15 -24 12 10 15 9 15
-5 0 -10 3 -15 7 -12 3 4 12 2 20 -4 10 -9 17 -8 28 1 9 7 19 9 23 5 4 -4 1
-10 -5 -12 -18 -6 -16 -23 2 -23 8 0 12 -6 9 -14 -3 -8 -1 -17 5 -21 6 -3 15
4 19 16 l9 23 5 -22 c4 -14 2 -22 -7 -22 -7 0 -16 -11 -19 -25 -4 -14 -13 -25
-20 -25 -8 0 -20 -13 -27 -29 -8 -17 -18 -27 -26 -24 -7 3 -13 -1 -13 -8 0
-10 -3 -10 -12 -1 -7 7 -17 12 -22 12 -6 0 -5 -4 2 -8 19 -13 3 -45 -19 -39
-11 3 -22 1 -25 -4 -13 -21 -20 4 -18 65 2 73 -9 84 -32 31 -8 -19 -34 -69
-59 -111 -25 -41 -45 -79 -45 -84 0 -5 -9 -19 -20 -32 -11 -12 -28 -33 -37
-45 l-18 -23 -130 20 c-276 42 -521 86 -725 130 -74 17 -199 44 -278 60 -79
17 -151 35 -160 40 -9 5 -42 13 -72 19 -207 36 -531 117 -605 151 -24 11 -46
20 -49 20 -3 0 -29 11 -58 24 -174 79 -510 205 -673 253 -267 78 -306 87 -520
128 -104 19 -224 42 -266 50 -42 8 -90 15 -107 15 -18 0 -32 3 -32 8 0 4 -30
8 -67 9 -37 2 -70 8 -73 14 -4 5 -18 7 -32 4 -14 -4 -29 -2 -32 3 -3 6 -17 7
-31 4 -14 -4 -78 -3 -143 1 -64 5 -137 9 -161 9 -31 -1 -40 2 -30 9 11 7 10 9
-7 9 -11 0 -24 -4 -30 -9 -14 -15 -64 -2 -57 15 3 9 -2 14 -16 14 -12 0 -21
-4 -21 -10 0 -5 -10 -10 -22 -10 -21 0 -21 0 -2 19 10 10 22 17 27 14 4 -2 7
5 7 16 0 24 -10 27 -28 9 -7 -7 -41 -18 -75 -23 -52 -8 -62 -13 -62 -30 0 -15
-6 -19 -25 -17 -14 1 -26 7 -28 11 -2 5 -12 19 -23 32 -15 17 -22 20 -31 11
-9 -9 -8 -12 4 -12 9 0 18 -9 21 -20 6 -24 -20 -28 -29 -5 -8 21 -24 19 -25
-2 0 -16 -1 -16 -8 1 -5 14 -10 16 -15 8 -4 -7 -5 -16 -2 -20 3 -5 -8 -9 -24
-10 -23 0 -28 3 -23 16 6 15 4 15 -10 4 -9 -8 -21 -11 -27 -7 -5 3 -10 -1 -10
-9 0 -19 -26 -27 -78 -22 -24 2 -42 0 -42 -6 0 -5 -12 -7 -29 -3 -16 3 -32 2
-35 -4 -7 -11 -63 -21 -143 -25 -33 -2 -65 -6 -71 -10 -7 -4 -12 -1 -12 8 0 9
-7 16 -15 16 -18 0 -20 -17 -3 -22 7 -3 -8 -12 -33 -20 -26 -9 -51 -13 -57 -9
-7 4 -12 28 -13 53 -2 32 -7 48 -18 52 -9 3 -22 9 -30 12 -9 4 -11 2 -7 -5 11
-17 -10 -13 -29 6 -14 14 -18 14 -26 2 -6 -10 -9 -10 -9 -1 0 6 -5 12 -10 12
-7 0 -8 -13 -5 -34 7 -36 -9 -59 -18 -27 -3 14 -11 18 -26 14 -33 -9 -35 -22
-4 -34 22 -8 24 -12 13 -19 -8 -6 -10 -10 -4 -10 5 0 14 4 20 9 5 5 18 5 29 1
19 -7 19 -7 -3 -14 -15 -5 -21 -13 -18 -23 9 -22 -12 -53 -34 -53 -11 0 -20 5
-20 10 0 6 -5 10 -10 10 -6 0 -10 -8 -8 -17 2 -11 -4 -18 -17 -20 -29 -5 -94
-23 -144 -40 -36 -13 -45 -13 -52 -2 -7 11 -9 11 -9 -2 0 -20 -41 -33 -51 -17
-9 14 -29 1 -29 -18 0 -13 -46 -42 -53 -33 -2 2 -16 40 -32 84 -15 44 -49 123
-75 176 -56 113 -65 139 -51 139 6 0 11 -6 11 -14 0 -7 7 -19 16 -26 12 -11
18 -10 32 3 15 16 15 17 -3 18 -17 0 -16 2 5 12 l25 11 -27 4 c-19 2 -28 9
-28 22 0 20 26 35 35 20 4 -6 1 -10 -4 -10 -6 0 -11 -5 -11 -10 0 -6 11 -8 25
-4 18 4 27 1 31 -10 3 -9 13 -16 21 -16 11 0 12 8 7 38 -4 20 -11 45 -16 55
-5 9 -6 22 -3 27 3 6 1 10 -5 10 -6 0 -13 -7 -16 -15 -6 -14 -8 -13 -19 1 -7
10 -19 15 -29 11 -9 -4 -16 -1 -16 6 0 7 -6 3 -12 -8 -7 -11 -18 -27 -26 -35
-10 -9 -11 -15 -3 -18 18 -6 12 -22 -9 -22 -17 0 -19 5 -14 52 l6 53 -20 -25
-20 -24 -30 34 c-17 19 -66 82 -109 139 -82 111 -232 281 -301 343 -23 21 -42
41 -42 44 0 3 15 3 33 0 17 -3 84 -13 147 -21z m3800 -546 c0 -5 -4 -9 -10 -9
-5 0 -10 7 -10 16 0 8 5 12 10 9 6 -3 10 -10 10 -16z m130 -10 c0 -4 -6 -10
-12 -12 -7 -3 -2 -6 12 -7 24 -2 24 -2 -4 -10 -33 -10 -50 -3 -52 22 -1 12 6
16 27 16 16 -1 29 -4 29 -9z m-3480 -9 c0 -5 -7 -10 -16 -10 -8 0 -12 5 -9 10
3 6 10 10 16 10 5 0 9 -4 9 -10z m3630 -6 c0 -2 -7 -4 -15 -4 -8 0 -15 4 -15
10 0 5 7 7 15 4 8 -4 15 -8 15 -10z m-244 -5 c3 -6 2 -15 -4 -21 -7 -7 -14 -3
-21 11 -10 17 -9 21 3 21 8 0 18 -5 22 -11z m-3481 -39 c-3 -5 -10 -10 -16
-10 -5 0 -9 5 -9 10 0 6 7 10 16 10 8 0 12 -4 9 -10z m3515 6 c0 -3 -4 -8 -10
-11 -5 -3 -10 -1 -10 4 0 6 5 11 10 11 6 0 10 -2 10 -4z m0 -36 c0 -5 -2 -10
-4 -10 -3 0 -8 5 -11 10 -3 6 -1 10 4 10 6 0 11 -4 11 -10z m-1893 -92 c-3 -8
-6 -5 -6 6 -1 11 2 17 5 13 3 -3 4 -12 1 -19z m-27 2 c0 -5 -7 -10 -16 -10 -8
0 -12 -4 -9 -10 3 -5 1 -10 -4 -10 -6 0 -11 2 -11 4 0 2 -3 11 -6 20 -5 12 0
16 20 16 14 0 26 -4 26 -10z m-865 -69 c3 -5 1 -12 -5 -16 -5 -3 -10 1 -10 9
0 18 6 21 15 7z m4655 -1 c0 -5 -4 -10 -10 -10 -5 0 -10 5 -10 10 0 6 5 10 10
10 6 0 10 -4 10 -10z m-4697 -7 c-7 -2 -19 -2 -25 0 -7 3 -2 5 12 5 14 0 19
-2 13 -5z m24 -59 c-3 -3 -12 -4 -19 -1 -8 3 -5 6 6 6 11 1 17 -2 13 -5z
m-2824 -109 c-58 -100 -82 -121 -43 -38 20 42 85 133 95 133 2 0 -21 -43 -52
-95z m8427 55 c15 -5 18 -8 9 -9 -19 -1 -33 -28 -19 -36 6 -4 7 -13 2 -23 -5
-9 -8 -32 -7 -49 3 -31 1 -33 -29 -32 -28 0 -29 1 -8 9 22 9 31 30 12 30 -5 0
-10 7 -10 16 0 8 -6 22 -14 30 -8 8 -22 14 -30 14 -11 0 -16 9 -16 30 0 29 2
30 43 29 23 -1 53 -5 67 -9z m372 -50 c17 0 18 -3 8 -15 -7 -8 -10 -25 -6 -40
4 -14 2 -25 -3 -25 -5 0 -11 9 -14 20 -5 21 -37 18 -37 -4 -1 -13 -30 52 -30
66 0 6 13 8 31 4 17 -3 40 -6 51 -6z m-449 -37 c-7 -2 -21 -2 -30 0 -10 3 -4
5 12 5 17 0 24 -2 18 -5z m-8663 -34 c0 -5 -4 -9 -10 -9 -5 0 -10 7 -10 16 0
8 5 12 10 9 6 -3 10 -10 10 -16z m8615 11 c3 -5 -1 -10 -10 -10 -9 0 -13 5
-10 10 3 6 8 10 10 10 2 0 7 -4 10 -10z m218 -7 c-7 -2 -19 -2 -25 0 -7 3 -2
5 12 5 14 0 19 -2 13 -5z m187 -46 c0 -16 -6 -23 -21 -23 -18 0 -18 2 -5 12 9
6 16 16 16 23 0 6 2 11 5 11 3 0 5 -10 5 -23z m400 -13 c0 -2 -7 -4 -15 -4 -8
0 -15 4 -15 10 0 5 7 7 15 4 8 -4 15 -8 15 -10z m-9463 -36 c-3 -7 -5 -2 -5
12 0 14 2 19 5 13 2 -7 2 -19 0 -25z m9063 -7 c0 -6 -4 -13 -10 -16 -5 -3 -10
1 -10 9 0 9 5 16 10 16 6 0 10 -4 10 -9z m394 -57 c7 -3 11 -18 9 -37 -2 -24
-1 -27 5 -13 6 14 11 16 16 7 12 -20 -11 -39 -42 -33 -35 7 -77 38 -61 47 8 5
8 10 0 18 -18 18 -12 28 8 15 11 -7 17 -17 15 -23 -3 -5 2 -1 10 9 9 11 17 31
17 45 2 25 2 25 6 -2 3 -16 10 -30 17 -33z m-537 40 c-3 -3 -12 -4 -19 -1 -8
3 -5 6 6 6 11 1 17 -2 13 -5z m573 -4 c0 -5 -5 -10 -11 -10 -5 0 -7 5 -4 10 3
6 8 10 11 10 2 0 4 -4 4 -10z m37 4 c-3 -3 -12 -4 -19 -1 -8 3 -5 6 6 6 11 1
17 -2 13 -5z m-597 -93 c-6 -12 -16 -21 -22 -21 -6 0 -4 8 5 18 10 10 18 27
18 38 1 16 2 16 6 2 2 -9 -1 -26 -7 -37z m-52 -9 c-5 -27 -28 -26 -26 1 1 16
7 23 16 20 7 -3 12 -12 10 -21z m102 -90 c0 -15 -2 -15 -10 -2 -13 20 -13 33
0 25 6 -3 10 -14 10 -23z m760 0 c0 -15 -2 -15 -10 -2 -13 20 -13 33 0 25 6
-3 10 -14 10 -23z m-10050 -82 c0 -5 -4 -10 -10 -10 -5 0 -10 5 -10 10 0 6 5
10 10 10 6 0 10 -4 10 -10z m9627 -35 c-4 -8 -12 -15 -19 -14 -10 0 -10 2 0 6
6 2 12 12 12 21 0 8 3 13 6 9 4 -3 4 -13 1 -22z m243 0 c0 -8 7 -15 15 -15 8
0 15 -7 15 -15 0 -8 7 -15 16 -15 13 0 14 -3 5 -13 -6 -8 -8 -17 -4 -21 4 -4
9 -19 10 -34 2 -15 11 -32 19 -39 19 -14 8 -21 -86 -51 -164 -53 -272 -74
-383 -73 -149 1 -152 4 -79 79 28 28 66 55 95 66 26 10 47 20 47 23 0 3 -7 3
-15 -1 -8 -3 -15 -1 -15 4 0 9 45 15 78 11 7 -1 12 4 11 11 -4 30 2 48 16 48
11 0 12 -5 5 -25 -9 -24 3 -45 15 -25 3 5 17 10 29 10 13 0 29 7 36 15 7 8 16
13 20 10 5 -3 16 2 24 11 9 9 29 17 43 19 15 1 32 10 38 19 13 20 45 21 45 1z
m298 -19 c-7 -8 -15 -12 -17 -11 -5 6 10 25 20 25 5 0 4 -6 -3 -14z m-6998
-13 c0 -14 -19 -38 -25 -32 -8 8 5 39 16 39 5 0 9 -3 9 -7z m7056 -15 c4 -6
-1 -17 -11 -25 -29 -20 -43 -16 -37 12 5 26 35 35 48 13z m-7423 -43 c-9 -25
158 -110 194 -99 10 3 7 -2 -7 -10 -15 -9 -49 -15 -87 -16 -35 0 -63 -4 -63
-10 0 -23 -39 -8 -64 24 -30 40 -33 83 -10 128 15 29 17 30 30 14 7 -10 10
-24 7 -31z m6867 35 c0 -5 -4 -10 -10 -10 -5 0 -10 5 -10 10 0 6 5 10 10 10 6
0 10 -4 10 -10z m-630 -16 c0 -2 -7 -4 -15 -4 -8 0 -15 4 -15 10 0 5 7 7 15 4
8 -4 15 -8 15 -10z m305 6 c-3 -5 -12 -10 -18 -10 -7 0 -6 4 3 10 19 12 23 12
15 0z m765 0 c0 -5 -7 -10 -16 -10 -8 0 -12 5 -9 10 3 6 10 10 16 10 5 0 9 -4
9 -10z m-1073 -36 c-3 -3 -12 -4 -19 -1 -8 3 -5 6 6 6 11 1 17 -2 13 -5z m-12
-154 c-27 -11 -45 -12 -45 -2 0 5 15 9 33 9 26 1 28 -1 12 -7z m-7755 -240 c0
-5 -2 -10 -4 -10 -3 0 -8 5 -11 10 -3 6 -1 10 4 10 6 0 11 -4 11 -10z m40
-314 c0 -3 -4 -8 -10 -11 -5 -3 -10 -1 -10 4 0 6 5 11 10 11 6 0 10 -2 10 -4z
m-325 -16 c-3 -5 -11 -10 -16 -10 -6 0 -7 5 -4 10 3 6 11 10 16 10 6 0 7 -4 4
-10z m268 -50 c3 -11 1 -20 -4 -20 -5 0 -9 9 -9 20 0 11 2 20 4 20 2 0 6 -9 9
-20z m-306 -122 c-3 -7 -5 -2 -5 12 0 14 2 19 5 13 2 -7 2 -19 0 -25z m203 -2
c0 -2 -7 -7 -16 -10 -8 -3 -12 -2 -9 4 6 10 25 14 25 6z m-327 -93 c-7 -2 -19
-2 -25 0 -7 3 -2 5 12 5 14 0 19 -2 13 -5z m10695 -137 c4 -19 -16 -39 -30
-30 -4 3 -8 16 -8 30 0 19 5 25 17 22 10 -2 19 -12 21 -22z m-10706 -98 c-7
-7 -12 -8 -12 -2 0 14 12 26 19 19 2 -3 -1 -11 -7 -17z m5394 -102 l63 -64
-15 -48 c-14 -47 -44 -92 -44 -66 0 7 -6 12 -14 12 -16 0 -121 124 -121 142 1
7 7 30 15 51 20 53 43 48 116 -27z m603 32 c42 3 98 -38 203 -146 42 -43 81
-75 85 -71 12 12 50 -17 67 -49 11 -21 12 -40 6 -74 -8 -42 -5 -55 25 -124 18
-43 31 -82 28 -87 -2 -4 -78 64 -166 152 -89 88 -202 193 -250 233 l-89 72 7
46 c9 56 13 63 34 54 9 -4 31 -7 50 -6z m-5922 -20 c-3 -8 -6 -5 -6 6 -1 11 2
17 5 13 3 -3 4 -12 1 -19z m-27 -43 c0 -8 -4 -15 -10 -15 -5 0 -7 7 -4 15 4 8
8 15 10 15 2 0 4 -7 4 -15z m5120 -127 c0 -23 -4 -29 -17 -26 -19 3 -29 39
-19 65 10 25 36 -4 36 -39z m-5230 32 c0 -5 -7 -10 -16 -10 -8 0 -12 5 -9 10
3 6 10 10 16 10 5 0 9 -4 9 -10z m3503 -220 c169 -275 329 -823 412 -1410 43
-305 44 -517 2 -295 -177 928 -242 1188 -384 1535 -76 186 -113 279 -113 287
0 10 34 -38 83 -117z m680 90 c97 -61 224 -216 297 -360 51 -100 51 -107 20
-200 -16 -45 -31 -85 -35 -88 -7 -8 -62 24 -95 54 -17 16 -32 21 -48 17 -12
-3 -22 -1 -22 5 0 5 -10 12 -22 15 -17 5 -38 36 -81 124 -32 65 -79 151 -104
191 -50 81 -58 133 -30 189 10 18 17 43 17 58 0 21 5 25 28 25 15 0 49 -13 75
-30z m512 4 c43 -20 127 -108 153 -161 20 -39 21 -41 3 -99 -16 -52 -21 -59
-41 -56 -66 7 -143 71 -199 163 -25 41 -26 56 -5 120 18 55 32 60 89 33z
m-4840 -164 c3 -5 1 -10 -4 -10 -6 0 -11 5 -11 10 0 6 2 10 4 10 3 0 8 -4 11
-10z m-35 -100 c0 -5 -2 -10 -4 -10 -3 0 -8 5 -11 10 -3 6 -1 10 4 10 6 0 11
-4 11 -10z m-56 -35 c-7 -16 -24 -21 -24 -6 0 8 7 13 27 20 1 1 0 -6 -3 -14z
m-64 -45 c0 -5 -15 -9 -32 -9 l-33 1 30 8 c17 4 31 8 33 9 1 0 2 -3 2 -9z m10
-37 c0 -5 -5 -15 -10 -23 -8 -12 -10 -11 -10 8 0 12 5 22 10 22 6 0 10 -3 10
-7z m4303 -23 c15 -12 29 -36 33 -56 6 -35 -11 -120 -27 -130 -15 -9 -48 16
-65 48 -14 28 -15 39 -4 87 19 83 21 84 63 51z m2403 -39 c120 -125 272 -378
365 -608 18 -46 38 -83 45 -83 34 0 61 -69 178 -441 88 -280 119 -446 137
-731 20 -326 -30 -752 -127 -1070 -15 -49 -31 -88 -36 -88 -5 0 -7 8 -4 18 20
62 47 196 65 312 32 216 33 235 40 440 6 186 7 195 26 195 11 0 20 7 20 15 0
9 -9 15 -23 14 -26 -1 -28 7 -36 121 -7 97 -70 402 -120 580 -42 148 -103 341
-116 365 -5 9 -11 27 -13 41 -2 13 -7 33 -12 44 -39 105 -61 154 -139 310 -60
121 -90 193 -92 220 -1 22 -2 43 -3 47 -2 14 -45 48 -61 48 -9 0 -37 28 -62
63 -26 34 -63 80 -84 102 -49 53 -62 78 -56 115 7 49 41 40 108 -29z m3370 17
c-3 -13 -6 -32 -6 -43 -1 -19 -1 -19 -15 -2 -10 15 -11 25 -3 43 14 30 32 31
24 2z m-5905 -69 c39 -78 88 -216 124 -350 38 -147 44 -216 20 -226 -24 -9
-41 22 -65 122 -12 49 -44 166 -71 260 -48 165 -59 235 -39 235 5 0 19 -19 31
-41z m-4136 21 c-3 -5 -10 -10 -16 -10 -5 0 -9 5 -9 10 0 6 7 10 16 10 8 0 12
-4 9 -10z m9995 -11 c0 -4 -16 -9 -35 -11 -23 -3 -31 0 -25 7 9 11 60 14 60 4z
m-430 -15 c0 -4 -9 -22 -21 -40 -11 -19 -18 -38 -14 -44 3 -6 0 -13 -8 -15 -9
-4 -12 -16 -9 -35 4 -25 1 -30 -16 -30 -11 0 -22 -7 -26 -15 -5 -15 18 -22 27
-7 2 4 2 1 0 -6 -1 -8 -3 -20 -3 -28 0 -8 -7 -14 -15 -14 -18 0 -20 -20 -2
-20 7 0 6 -4 -4 -10 -11 -6 -42 5 -110 39 -52 27 -132 64 -177 82 l-84 34 139
33 c76 18 176 43 223 57 95 27 100 28 100 19z m430 -14 c0 -5 -7 -10 -15 -10
-8 0 -15 5 -15 10 0 6 7 10 15 10 8 0 15 -4 15 -10z m-95 -30 c3 -5 1 -10 -4
-10 -6 0 -11 5 -11 10 0 6 2 10 4 10 3 0 8 -4 11 -10z m52 -6 c-3 -3 -12 -4
-19 -1 -8 3 -5 6 6 6 11 1 17 -2 13 -5z m21 -38 c-9 -6 -19 -26 -22 -44 -4
-17 -13 -32 -19 -32 -8 0 -7 -4 1 -12 18 -18 14 -30 -7 -23 -15 5 -20 -2 -30
-40 -6 -25 -15 -45 -19 -45 -5 0 -13 -19 -19 -42 -6 -24 -14 -52 -19 -63 -7
-18 -6 -18 9 -6 9 7 17 10 17 7 0 -12 -27 -36 -33 -30 -3 3 -8 -4 -12 -16 -4
-12 -4 -24 -1 -27 3 -4 1 -12 -4 -18 -8 -10 -3 -14 20 -17 18 -3 30 0 30 7 0
6 12 21 26 34 14 12 23 28 20 36 -2 7 2 19 10 25 8 7 14 21 14 31 0 11 5 19
11 19 6 0 9 7 5 15 -3 8 -1 15 5 15 6 0 9 6 6 14 -3 8 0 17 8 20 7 2 17 25 20
50 9 58 26 61 19 4 -22 -185 -42 -330 -48 -335 -8 -9 -82 14 -99 31 -7 8 -33
17 -58 21 -34 6 -170 64 -187 80 -5 4 59 95 66 95 11 0 31 49 22 55 -4 2 -2
20 4 39 6 19 14 32 18 30 4 -3 4 -12 1 -21 -4 -10 -2 -14 7 -11 8 2 17 16 21
31 5 17 4 25 -2 21 -6 -4 -9 17 -7 52 2 48 6 59 21 60 12 1 13 1 2 -3 -15 -5
-22 -53 -7 -53 5 0 17 9 27 20 9 10 22 18 29 17 6 -1 10 5 8 13 -3 10 2 9 18
-5 21 -19 22 -19 39 3 12 17 19 20 28 11 8 -8 18 -7 39 4 32 17 49 3 22 -17z
m-248 -100 c-7 -7 -10 1 -9 25 0 32 1 33 10 10 6 -16 6 -28 -1 -35z m-115 24
c-3 -5 -11 -10 -16 -10 -6 0 -7 5 -4 10 3 6 11 10 16 10 6 0 7 -4 4 -10z m320
-90 c3 -5 1 -10 -4 -10 -6 0 -11 5 -11 10 0 6 2 10 4 10 3 0 8 -4 11 -10z
m-6809 -72 c45 -35 52 -49 60 -116 11 -107 -9 -266 -45 -344 -18 -41 -36 -68
-46 -68 -8 0 -15 5 -15 10 0 6 -6 10 -13 10 -15 0 -51 45 -61 77 -17 53 -3
306 20 363 7 19 18 47 24 63 12 33 37 35 76 5z m6774 -38 c0 -5 -5 -10 -11
-10 -5 0 -7 5 -4 10 3 6 8 10 11 10 2 0 4 -4 4 -10z m-3 -42 c-3 -8 -6 -5 -6
6 -1 11 2 17 5 13 3 -3 4 -12 1 -19z m-7040 -154 c12 -14 26 -47 32 -74 11
-49 4 -74 -41 -167 l-11 -22 -36 23 c-57 37 -67 113 -25 207 30 66 47 73 81
33z m-828 -250 c21 -18 31 -35 31 -55 0 -30 -43 -134 -61 -144 -16 -10 -69 51
-69 80 0 14 9 42 20 62 11 21 20 45 20 54 0 36 19 37 59 3z m-579 -62 c30 -25
49 -172 31 -240 -17 -63 -26 -73 -56 -58 -32 14 -34 22 -42 126 -4 68 -2 98
11 138 10 29 21 52 26 52 4 0 18 -8 30 -18z m5168 -204 c32 -20 38 -29 25 -42
-15 -15 -10 -34 13 -45 41 -19 68 -29 94 -37 14 -3 68 -36 120 -73 123 -86
187 -125 233 -142 32 -11 38 -19 51 -63 20 -70 76 -372 76 -411 0 -6 -56 -9
-155 -6 -97 2 -187 -2 -242 -10 -49 -8 -95 -13 -103 -12 -13 2 -164 -38 -209
-55 -12 -4 -13 10 -7 84 3 50 8 99 10 110 12 63 -22 378 -64 602 -28 146 -33
136 53 127 44 -4 85 -14 105 -27z m-5471 -10 c-3 -8 -6 -5 -6 6 -1 11 2 17 5
13 3 -3 4 -12 1 -19z m4495 -127 c40 -33 90 -74 111 -93 21 -18 41 -35 44 -38
3 -3 3 3 0 13 -15 40 16 12 64 -60 29 -43 65 -94 80 -113 62 -81 216 -385 254
-504 24 -78 23 -95 -8 -96 -4 0 -40 -15 -80 -34 -40 -19 -96 -44 -126 -56 -30
-11 -67 -30 -82 -41 -15 -10 -29 -19 -32 -19 -3 0 -41 -22 -84 -48 -43 -26
-89 -53 -103 -60 -90 -44 -210 -158 -230 -218 -9 -28 -7 -37 14 -69 24 -35 25
-39 10 -73 -8 -21 -22 -47 -30 -59 -18 -28 -18 -41 0 -59 19 -18 41 -10 136
55 41 28 81 51 88 51 7 0 28 11 45 24 18 14 43 27 57 31 23 5 27 1 49 -55 13
-33 28 -63 32 -66 5 -3 18 -26 29 -51 11 -26 31 -61 44 -78 13 -16 40 -62 59
-102 20 -39 56 -96 80 -125 24 -29 51 -67 62 -84 20 -36 124 -102 200 -128
113 -38 269 -28 350 24 16 11 50 29 74 41 24 12 51 34 60 49 9 14 34 43 57 63
28 25 46 53 58 88 23 74 39 184 32 233 -14 112 -28 196 -41 246 -8 30 -21 95
-29 144 -9 49 -20 94 -26 100 -5 5 -10 18 -10 28 0 10 -16 47 -36 84 -22 41
-32 70 -26 76 11 11 285 107 389 136 l71 20 7 -85 c10 -109 -1 -300 -26 -476
-24 -176 -33 -215 -68 -297 -34 -78 -47 -159 -32 -188 17 -32 63 -37 113 -11
64 33 155 96 161 113 8 20 105 81 142 90 54 12 59 11 71 -13 21 -41 3 -273
-32 -421 -51 -212 -86 -300 -190 -475 -60 -101 -104 -153 -151 -181 -18 -10
-33 -22 -33 -26 0 -5 -30 -28 -67 -53 -38 -25 -93 -63 -123 -85 -52 -38 -100
-72 -212 -149 -43 -29 -48 -36 -48 -70 0 -30 7 -44 43 -78 51 -50 129 -93 218
-122 66 -22 117 -50 90 -51 -7 0 -52 -39 -100 -87 -157 -158 -223 -217 -345
-305 -89 -64 -316 -218 -323 -218 -4 0 -14 -6 -22 -14 -9 -7 -47 -30 -86 -51
-38 -21 -87 -49 -107 -62 -21 -12 -41 -23 -44 -23 -9 0 -163 -65 -231 -97 -29
-13 -115 -46 -190 -73 -76 -26 -181 -64 -233 -82 -96 -35 -257 -79 -375 -104
-62 -13 -136 -25 -180 -29 -27 -3 -70 -8 -95 -11 -76 -9 -680 -15 -680 -6 0 4
23 41 51 81 27 40 59 96 70 124 11 29 27 62 34 73 42 66 89 266 68 288 -5 4
-8 13 -8 19 0 5 -12 14 -27 19 -22 8 -33 5 -54 -11 -14 -11 -42 -25 -62 -32
-20 -6 -60 -23 -89 -36 -29 -13 -108 -40 -175 -60 -121 -37 -126 -38 -293 -38
l-170 0 -163 48 c-194 57 -276 87 -328 120 -51 32 -181 161 -189 187 -4 11
-10 20 -14 20 -9 0 -65 80 -59 84 2 1 35 12 75 24 45 14 107 46 162 82 49 33
96 60 104 60 25 0 38 27 35 71 -3 45 -6 48 -80 74 -74 26 -335 200 -410 274
-37 36 -68 71 -68 78 0 14 118 93 251 168 l56 32 28 -56 c15 -31 39 -87 52
-126 24 -65 82 -160 109 -178 7 -4 32 -35 57 -70 78 -108 211 -225 322 -282
l97 -50 127 0 126 0 104 70 c121 81 171 141 209 249 24 68 24 77 18 241 -7
188 -20 261 -67 362 -17 38 -46 106 -64 153 -18 47 -41 104 -50 128 -10 23
-16 44 -14 46 11 9 187 75 208 78 24 3 24 1 22 -62 -2 -82 4 -90 55 -83 29 4
67 24 130 69 49 35 108 74 132 85 23 11 42 24 42 28 0 4 24 24 53 44 28 20 76
59 104 86 l52 49 83 -4 c104 -5 278 23 488 77 158 41 200 58 200 83 0 19 -55
73 -83 81 -33 10 -122 72 -206 143 -41 34 -77 62 -81 62 -25 0 -11 43 47 157
36 70 76 157 88 193 38 110 57 150 70 150 14 0 57 113 80 215 9 39 20 79 25
90 5 11 17 56 27 100 20 90 22 317 4 440 -6 38 -8 71 -6 73 2 2 12 -1 22 -7
10 -6 12 -11 6 -11 -7 0 -13 -5 -13 -11 0 -6 6 -9 13 -6 6 2 23 -5 36 -17 l24
-21 -12 22 c-10 19 -9 22 5 16 11 -4 15 -1 13 13 -2 10 -1 24 3 29 3 6 7 55 9
110 5 139 20 146 131 56z m143 -81 c3 -5 1 -10 -4 -10 -6 0 -11 5 -11 10 0 6
2 10 4 10 3 0 8 -4 11 -10z m524 -740 c0 -10 -3 -8 -9 5 -12 27 -12 43 0 25 5
-8 9 -22 9 -30z m-4725 -142 c3 -18 12 -108 21 -200 19 -201 83 -478 129 -552
8 -11 16 -33 20 -48 5 -21 2 -28 -15 -33 -19 -6 -20 -13 -16 -68 2 -34 14 -89
26 -122 53 -142 65 -173 91 -230 15 -33 31 -71 35 -85 4 -14 44 -97 88 -185
84 -169 178 -320 257 -412 43 -50 48 -60 43 -92 -3 -20 -9 -40 -13 -44 -4 -4
-32 23 -63 60 -190 230 -226 276 -273 348 -28 44 -66 108 -83 142 -89 177
-170 445 -176 583 -2 41 -16 130 -30 198 -66 317 -101 711 -69 764 11 17 23 6
28 -24z m1691 -146 c17 -21 39 -49 48 -64 17 -28 17 -28 -9 -28 -15 0 -46 11
-69 25 -23 13 -46 21 -50 17 -4 -4 -4 9 1 28 4 19 8 46 9 60 4 44 6 45 23 22
9 -13 31 -40 47 -60z m1079 -88 c12 -31 6 -176 -14 -330 -11 -87 -23 -160 -26
-163 -9 -9 0 483 9 497 11 17 24 15 31 -4z m-970 -234 c14 0 14 3 -4 22 -14
15 -17 24 -9 27 6 2 16 -3 20 -12 12 -20 58 -31 75 -16 8 6 12 15 9 19 -3 5
-2 11 3 14 5 3 39 -29 76 -70 66 -73 199 -194 246 -224 13 -8 40 -29 59 -46
20 -17 59 -43 86 -59 28 -15 62 -38 77 -51 15 -12 61 -41 103 -64 41 -23 75
-47 75 -53 0 -7 -10 -46 -23 -87 -21 -69 -25 -75 -47 -71 -35 5 -62 26 -80 64
-20 42 -47 44 -205 18 -87 -14 -170 -37 -300 -84 -241 -87 -268 -97 -430 -178
-344 -170 -429 -230 -652 -458 -122 -126 -111 -123 -165 -49 -15 20 -33 42
-40 50 -17 17 -170 253 -191 293 -33 65 -77 167 -77 180 0 8 4 16 9 19 5 3 12
17 15 31 3 13 20 38 36 55 17 17 41 52 55 78 41 76 66 116 86 138 10 11 19 24
19 28 0 9 107 155 126 171 6 6 22 26 35 45 13 19 36 49 50 65 15 17 36 41 48
55 l20 25 0 -50 c1 -27 -4 -91 -9 -141 -5 -50 -12 -131 -15 -180 -6 -110 -29
-265 -44 -290 -16 -29 -41 -141 -41 -182 0 -33 5 -39 39 -54 20 -10 42 -18 47
-18 11 0 38 28 79 85 17 23 71 95 120 161 50 66 106 143 125 170 72 101 234
400 276 509 13 33 23 54 24 48 0 -15 20 -18 20 -3 0 5 11 33 24 62 13 29 31
77 40 106 8 29 17 56 20 61 3 5 43 -29 90 -75 46 -46 91 -84 100 -84z m-903
46 c-12 -12 -21 -26 -21 -32 -1 -11 -90 -112 -90 -101 0 20 46 96 81 134 22
24 40 48 40 55 1 7 4 2 6 -10 3 -15 -3 -32 -16 -46z m4153 -387 c13 -20 13
-26 -4 -58 -39 -78 -105 -108 -153 -71 -35 28 -34 39 6 85 52 60 125 81 151
44z m3255 -444 c61 -16 101 -39 208 -122 103 -79 147 -130 189 -218 38 -80 55
-184 34 -210 -7 -8 -10 -27 -7 -42 3 -15 1 -36 -4 -45 -10 -18 12 -135 32
-171 19 -36 22 -169 5 -235 -9 -35 -16 -81 -16 -101 0 -46 -32 -97 -80 -128
-109 -70 -139 -97 -146 -127 -17 -79 -85 -165 -159 -201 -32 -16 -80 -29 -122
-33 -85 -9 -324 4 -372 19 -51 16 -131 53 -131 60 0 9 -49 -2 -56 -13 -7 -11
62 -90 91 -103 12 -5 29 -16 37 -22 22 -19 152 -43 265 -50 l102 -6 -5 -31
c-18 -99 -55 -178 -111 -234 -7 -7 -16 -19 -20 -25 -5 -7 -29 -29 -54 -50 -39
-32 -53 -37 -96 -37 -99 0 -232 54 -269 109 -13 20 -40 55 -59 79 -31 38 -35
50 -35 100 0 31 7 81 14 110 16 61 14 70 -46 168 -21 34 -38 68 -38 76 0 8
-10 27 -23 42 -28 33 -67 148 -67 202 -1 21 -7 62 -14 89 -31 114 -4 364 58
545 64 186 77 207 198 334 122 129 185 172 333 229 184 72 232 77 364 42z
m-10209 -550 c0 -14 -75 -171 -85 -180 -7 -5 -12 -14 -12 -18 -2 -23 -27 -67
-34 -60 -5 5 -10 33 -11 62 -1 29 -6 55 -11 58 -4 2 -3 11 4 19 6 8 9 14 7 14
-3 0 19 25 49 55 30 30 63 55 74 55 10 0 19 -2 19 -5z m8943 -42 c-7 -2 -19
-2 -25 0 -7 3 -2 5 12 5 14 0 19 -2 13 -5z m-9163 -193 c0 -5 -7 -7 -15 -4 -8
4 -15 8 -15 10 0 2 7 4 15 4 8 0 15 -4 15 -10z m0 -35 c0 -8 -7 -15 -15 -15
-13 0 -14 3 -3 15 16 18 18 18 18 0z m49 -18 c12 -15 12 -17 -3 -11 -9 3 -16
13 -16 22 0 8 1 13 3 11 1 -2 9 -12 16 -22z m4217 -10 c22 -19 26 -29 20 -52
-10 -40 -73 -98 -125 -115 -43 -14 -44 -14 -67 14 -13 15 -24 35 -24 44 0 38
112 132 157 132 6 0 24 -10 39 -23z m-4326 -13 c0 -2 -7 -4 -15 -4 -8 0 -15 4
-15 10 0 5 7 7 15 4 8 -4 15 -8 15 -10z m3033 -56 c23 -23 66 -57 96 -76 29
-19 56 -43 58 -53 3 -10 9 -19 14 -19 12 0 113 -63 126 -80 7 -8 13 -12 13 -7
0 14 100 -43 100 -58 0 -23 -31 -31 -45 -12 -7 10 -18 17 -24 17 -7 0 -9 5 -5
11 9 14 -16 30 -37 24 -10 -4 -23 4 -33 20 -14 21 -20 24 -31 15 -20 -16 -64
7 -85 44 -18 34 -44 48 -33 19 6 -17 4 -16 -17 2 -14 11 -30 26 -38 33 -7 6
-17 12 -22 12 -5 0 -12 9 -15 20 -4 11 -21 27 -38 35 -18 7 -43 22 -56 33 -20
16 -22 22 -12 40 17 32 37 27 84 -20z m-2966 -4 c-3 -3 -12 -4 -19 -1 -8 3 -5
6 6 6 11 1 17 -2 13 -5z m-585 -119 c3 -14 1 -28 -3 -31 -5 -3 -9 2 -9 10 0
21 -9 20 -30 -1 -12 -14 -14 -22 -6 -40 13 -27 36 -30 36 -5 0 12 6 8 19 -13
18 -30 18 -45 0 -45 -5 0 -9 7 -9 15 0 24 -17 17 -24 -10 -4 -14 -14 -25 -22
-25 -10 0 -14 -6 -11 -14 3 -8 1 -16 -5 -18 -12 -4 37 -58 52 -58 6 0 10 -4
10 -10 0 -5 -9 -10 -20 -10 -11 0 -20 5 -20 10 0 6 -9 10 -20 10 -11 0 -20 -4
-20 -10 0 -5 5 -10 10 -10 6 0 10 -9 10 -19 0 -10 8 -22 17 -25 10 -4 14 -4
10 0 -8 8 11 34 25 34 7 0 6 -5 0 -13 -13 -15 -4 -60 9 -51 5 3 17 0 26 -5 12
-7 14 -10 4 -11 -26 0 10 -30 38 -30 20 0 23 -2 11 -10 -12 -8 -12 -10 3 -16
29 -11 61 4 79 36 11 20 22 28 32 24 9 -3 16 -10 16 -16 0 -13 61 -73 83 -81
30 -11 19 -41 -63 -182 -52 -88 -54 -89 -136 -90 -55 0 -73 3 -69 13 3 6 8 19
11 28 5 12 2 15 -12 12 -13 -2 -21 -15 -25 -41 -3 -21 -12 -43 -18 -50 -10 -9
-11 -6 -5 18 3 17 7 34 8 39 2 13 -45 12 -70 -2 -11 -6 -30 -8 -42 -5 -16 4
-22 1 -22 -11 0 -22 -20 -21 -21 2 0 9 -3 12 -5 5 -3 -7 -12 -9 -20 -6 -12 4
-14 0 -8 -23 9 -38 14 -45 25 -39 5 4 9 1 9 -4 0 -6 -6 -11 -14 -11 -8 0 -17
-6 -19 -12 -3 -7 -6 -3 -6 10 -1 23 -15 30 -26 12 -9 -15 -25 -12 -25 5 0 23
-19 18 -30 -7 -5 -13 -9 -17 -9 -9 -1 8 -8 23 -18 33 -11 13 -12 18 -3 18 7 0
1 9 -13 20 -26 21 -62 26 -71 11 -9 -14 4 -41 20 -41 8 0 14 -5 14 -11 0 -5
-4 -8 -9 -5 -5 4 -11 0 -14 -6 -3 -8 -9 -3 -15 12 -10 24 -11 24 -11 3 -1 -13
-6 -23 -12 -23 -6 0 -10 -15 -9 -32 3 -52 1 -68 -10 -68 -5 0 -7 7 -4 15 4 10
0 15 -14 15 -11 0 -28 3 -37 6 -13 5 -16 2 -13 -16 1 -13 -2 -25 -9 -27 -7 -3
-9 3 -6 16 3 13 1 21 -7 21 -9 0 -11 10 -7 30 9 41 -1 60 -30 60 -19 0 -24 4
-21 22 3 22 0 24 -43 27 -11 0 -17 6 -14 11 4 6 11 8 16 5 16 -10 10 5 -11 27
-13 14 -18 29 -14 45 4 15 2 23 -6 23 -9 0 -9 4 1 16 16 20 22 54 9 54 -12 0
-2 29 19 53 9 11 11 21 6 25 -17 12 -17 42 -1 42 10 0 13 -6 10 -15 -4 -8 -1
-15 5 -15 6 0 11 16 11 35 0 19 -4 35 -10 35 -17 0 -11 18 12 40 28 26 16 38
-16 16 -15 -9 -27 -12 -31 -6 -3 6 1 10 9 10 9 0 16 4 16 9 0 5 8 11 17 13 12
2 18 14 19 36 1 17 -2 32 -7 32 -5 0 -9 -11 -9 -25 0 -14 -4 -25 -8 -25 -5 0
-7 14 -4 30 3 18 0 30 -7 30 -9 0 -9 5 0 21 9 17 13 19 20 8 14 -23 20 -3 7
25 -13 31 -1 46 37 46 11 0 72 13 135 30 63 16 127 30 142 30 15 0 64 7 109
16 57 12 83 14 88 6 4 -7 12 -8 21 -2 13 8 12 10 -2 10 -10 0 -18 5 -18 11 0
7 10 9 24 7 15 -3 27 0 30 8 9 23 33 16 38 -11z m38 -66 c0 -6 -4 -7 -10 -4
-5 3 -10 11 -10 16 0 6 5 7 10 4 6 -3 10 -11 10 -16z m-662 -73 c3 -12 -1 -17
-10 -14 -7 3 -15 13 -16 22 -3 12 1 17 10 14 7 -3 15 -13 16 -22z m622 -6 c0
-5 -5 -10 -11 -10 -5 0 -7 5 -4 10 3 6 8 10 11 10 2 0 4 -4 4 -10z m-652 -102
c-3 -7 -13 -15 -24 -17 -16 -3 -17 -1 -5 13 16 19 34 21 29 4z m747 -8 c-3 -5
-11 -10 -16 -10 -6 0 -7 5 -4 10 3 6 11 10 16 10 6 0 7 -4 4 -10z m119 -15
c-4 -8 -8 -15 -10 -15 -2 0 -4 7 -4 15 0 8 4 15 10 15 5 0 7 -7 4 -15z m-137
-21 c-3 -3 -12 -4 -19 -1 -8 3 -5 6 6 6 11 1 17 -2 13 -5z m13 -64 c0 -5 -4
-10 -9 -10 -6 0 -13 5 -16 10 -3 6 1 10 9 10 9 0 16 -4 16 -10z m8614 -106
c20 -19 20 -43 1 -68 -8 -11 -12 -29 -9 -42 3 -12 -2 -48 -11 -79 -20 -70 -14
-82 9 -20 10 25 21 45 25 45 4 0 7 -37 5 -82 -5 -201 -3 -586 3 -618 4 -19 7
-52 6 -72 -1 -27 3 -38 13 -38 15 0 18 5 29 54 13 61 17 13 4 -69 -7 -47 -15
-82 -18 -78 -7 9 -26 11 -34 3 -7 -7 -38 -334 -46 -479 -7 -140 2 -127 -111
-161 -146 -44 -240 -82 -271 -111 -49 -45 -103 -87 -131 -99 -21 -10 -33 -8
-77 14 -48 25 -60 46 -25 46 22 0 152 139 179 190 28 55 48 175 36 216 -30 98
-68 146 -156 194 -74 41 -110 37 -117 -10 -6 -37 12 -55 46 -46 19 5 30 -1 50
-25 14 -17 26 -43 26 -57 0 -31 -37 -90 -96 -154 -36 -40 -46 -45 -98 -52 -55
-6 -60 -5 -92 24 -19 16 -44 30 -55 30 -20 0 -20 0 -1 28 10 15 36 59 57 97
22 39 47 76 57 83 29 21 78 98 97 155 52 146 72 191 128 292 132 237 341 683
406 865 3 8 6 -5 7 -30 l2 -45 19 43 c15 32 25 42 43 42 13 0 26 7 30 15 7 20
50 19 70 -1z m-8734 -244 c0 -5 -4 -10 -10 -10 -5 0 -10 5 -10 10 0 6 5 10 10
10 6 0 10 -4 10 -10z m-44 -14 c20 -21 18 -48 -3 -44 -11 2 -19 14 -21 31 -4
30 3 34 24 13z m-555 -15 c-12 -8 -51 -4 -51 5 0 2 15 4 33 4 22 0 28 -3 18
-9z m768 5 c-10 -9 -79 -14 -74 -5 4 5 22 9 42 9 20 0 34 -2 32 -4z m-289 -16
c0 -5 -4 -10 -10 -10 -5 0 -10 5 -10 10 0 6 5 10 10 10 6 0 10 -4 10 -10z m30
-10 c0 -5 -2 -10 -4 -10 -3 0 -8 5 -11 10 -3 6 -1 10 4 10 6 0 11 -4 11 -10z
m-500 -10 c0 -5 -2 -10 -4 -10 -3 0 -8 5 -11 10 -3 6 -1 10 4 10 6 0 11 -4 11
-10z m62 -42 c-5 -31 -5 -32 -14 -8 -9 26 -3 54 10 46 5 -3 7 -20 4 -38z m438
22 c12 -8 11 -10 -7 -10 -13 0 -23 5 -23 10 0 13 11 13 30 0z m-488 -7 c-13
-3 -26 -11 -29 -19 -8 -20 -28 -17 -30 4 -1 15 6 19 40 19 23 0 32 -2 19 -4z
m211 -13 c5 -21 -7 -35 -22 -26 -10 7 -3 46 9 46 4 0 10 -9 13 -20z m507 0 c0
-11 -6 -20 -13 -20 -7 0 -13 9 -13 20 0 11 6 20 13 20 7 0 13 -9 13 -20z
m-343 -33 c2 -26 0 -29 -8 -14 -16 27 -19 56 -6 51 7 -2 13 -19 14 -37z m63
18 c0 -18 -5 -25 -20 -25 -11 0 -20 7 -20 16 0 8 4 13 9 10 5 -3 11 1 15 9 8
23 16 18 16 -10z m-550 -7 c0 -19 -2 -20 -10 -8 -13 19 -13 30 0 30 6 0 10
-10 10 -22z m763 16 c3 -3 3 -13 0 -21 -5 -12 -7 -12 -14 -1 -15 23 -4 40 14
22z m-153 -14 c0 -5 -8 -10 -17 -10 -15 0 -16 -2 -3 -10 13 -8 12 -10 -2 -10
-18 0 -24 20 -11 33 10 11 33 8 33 -3z m-165 -10 c-3 -5 -11 -10 -16 -10 -6 0
-7 5 -4 10 3 6 11 10 16 10 6 0 7 -4 4 -10z m308 -30 c11 0 17 -3 13 -7 -20
-20 -67 10 -58 36 4 11 8 9 15 -7 6 -12 19 -22 30 -22z m-430 13 c-7 -2 -13
-11 -13 -19 0 -9 -4 -12 -10 -9 -19 12 -10 35 13 34 12 0 16 -3 10 -6z m477 3
c0 -3 -4 -8 -10 -11 -5 -3 -10 -1 -10 4 0 6 5 11 10 11 6 0 10 -2 10 -4z
m-360 -22 c0 -8 -5 -12 -10 -9 -6 4 -8 11 -5 16 9 14 15 11 15 -7z m100 -10
c6 -14 9 -34 8 -43 -3 -17 5 -18 62 -7 32 7 36 5 36 -13 0 -12 -4 -21 -8 -21
-4 0 -8 4 -8 10 0 10 -56 7 -67 -3 -3 -4 2 -9 11 -13 21 -8 21 -23 -1 -39 -9
-7 -13 -17 -9 -24 10 -15 36 4 36 25 0 8 3 14 8 14 4 0 17 3 30 6 18 5 21 3
16 -10 -4 -11 -1 -16 10 -16 9 0 16 5 16 10 0 6 8 10 18 10 15 -1 15 -2 1 -13
-8 -7 -18 -19 -21 -27 -11 -27 -158 -205 -176 -212 -19 -7 -78 -11 -71 -4 2 3
16 6 29 8 14 2 33 9 44 14 25 15 3 28 -23 14 -25 -13 -63 -14 -42 -1 9 6 12
22 9 50 -2 29 0 41 10 41 7 0 10 -4 7 -10 -8 -13 36 -13 55 1 12 8 9 9 -11 5
-17 -4 -31 -1 -39 9 -7 8 -9 16 -4 16 5 1 14 2 19 3 6 0 11 5 12 9 1 5 10 15
20 23 17 12 16 13 -12 14 -16 1 -24 4 -17 7 23 9 12 23 -13 17 -30 -8 -32 2
-4 25 l21 17 -26 14 c-14 7 -26 17 -26 22 0 13 18 9 27 -6 4 -7 22 -17 39 -20
29 -6 32 -5 32 19 0 18 -5 25 -14 21 -8 -3 -14 -1 -14 4 0 6 5 10 11 10 12 0
1 43 -12 48 -11 5 -1 22 12 22 5 0 14 -12 19 -26z m25 6 c3 -5 1 -10 -4 -10
-6 0 -11 5 -11 10 0 6 2 10 4 10 3 0 8 -4 11 -10z m-475 -10 c0 -5 -5 -10 -11
-10 -5 0 -7 5 -4 10 3 6 8 10 11 10 2 0 4 -4 4 -10z m616 -16 c14 5 19 -5 8
-17 -12 -11 -42 16 -36 32 5 14 7 13 10 -2 2 -11 9 -16 18 -13z m-421 6 c3 -5
-1 -10 -10 -10 -9 0 -13 5 -10 10 3 6 8 10 10 10 2 0 7 -4 10 -10z m210 0 c3
-5 4 -10 1 -10 -2 0 -11 -2 -19 -5 -8 -4 -14 0 -14 10 0 17 22 21 32 5z m7625
-10 c-14 -11 -29 -20 -35 -20 -5 0 4 9 20 20 38 25 48 25 15 0z m-6639 -47
c18 -47 11 -137 -13 -173 -19 -28 -134 -100 -159 -100 -4 0 -21 19 -38 42 -30
41 -32 47 -29 127 3 77 5 86 28 103 26 19 135 37 178 29 13 -2 28 -14 33 -28z
m-1144 2 c-4 -9 -17 -14 -34 -14 l-28 2 28 4 c16 3 27 11 27 20 0 9 3 14 6 10
4 -3 4 -13 1 -22z m83 21 c0 -3 -4 -8 -10 -11 -5 -3 -10 -1 -10 4 0 6 5 11 10
11 6 0 10 -2 10 -4z m325 -16 c-3 -5 -14 -10 -23 -11 -11 0 -12 -2 -4 -6 6 -2
9 -9 6 -14 -3 -6 -11 -5 -20 2 -12 10 -12 14 3 25 21 16 47 18 38 4z m-573
-92 c-9 -9 -12 -4 -11 23 0 32 1 33 11 11 8 -17 8 -26 0 -34z m165 46 c-3 -3
-12 -4 -19 -1 -8 3 -5 6 6 6 11 1 17 -2 13 -5z m43 -14 c0 -5 -4 -10 -10 -10
-5 0 -10 5 -10 10 0 6 5 10 10 10 6 0 10 -4 10 -10z m-325 -10 c-3 -5 -11 -10
-16 -10 -6 0 -7 5 -4 10 3 6 11 10 16 10 6 0 7 -4 4 -10z m255 -10 c-8 -5 -10
-10 -4 -10 7 0 14 -9 17 -21 7 -25 27 -16 27 12 0 21 34 27 46 8 3 -6 15 -8
26 -6 24 7 48 -1 48 -16 0 -6 -3 -8 -6 -4 -3 3 -17 -7 -31 -24 -14 -16 -32
-29 -41 -29 -15 0 -8 -14 9 -16 5 -1 14 -2 19 -3 6 0 10 -11 10 -23 0 -19 -5
-23 -27 -22 -16 0 -38 4 -51 8 -17 6 -27 3 -37 -11 -18 -23 -19 -36 -2 -30 6
2 11 9 10 15 -3 14 25 24 32 12 4 -6 0 -10 -7 -10 -8 -1 -6 -6 6 -15 17 -13
18 -15 3 -15 -9 0 -17 -4 -17 -10 0 -13 6 -13 31 1 12 6 18 17 15 25 -7 18 8
18 23 1 8 -10 6 -19 -9 -35 -26 -28 -25 -35 4 -30 14 3 31 1 38 -3 11 -7 11
-9 0 -9 -9 0 -11 -7 -7 -20 4 -12 2 -20 -5 -20 -6 0 -9 4 -6 9 3 5 -1 11 -9
15 -8 3 -15 1 -15 -4 0 -6 -7 -10 -15 -10 -8 0 -15 -4 -15 -10 0 -5 7 -10 15
-10 8 0 15 -3 15 -6 0 -11 -29 -34 -44 -34 -9 0 -13 -6 -10 -14 6 -16 -24 -36
-54 -36 -14 0 -19 -5 -16 -17 3 -12 -9 -26 -34 -42 -109 -71 -165 -102 -175
-97 -7 2 -4 5 6 5 9 1 17 8 17 16 0 8 4 15 9 15 14 0 22 73 8 82 -9 6 -9 12 1
28 16 26 16 25 -8 27 -11 1 -18 -2 -15 -7 3 -4 0 -21 -5 -36 -8 -21 -8 -29 2
-36 9 -5 3 -8 -16 -8 -24 0 -27 2 -16 15 11 13 8 15 -18 15 -19 0 -35 -7 -41
-17 -9 -16 -10 -16 -11 3 0 23 23 48 33 37 4 -3 7 3 7 15 0 18 -6 22 -30 22
-23 0 -30 4 -30 20 0 11 5 20 11 20 5 0 7 5 4 10 -3 6 -1 10 5 10 7 0 9 -8 5
-20 -9 -27 5 -25 34 6 l24 25 -22 6 c-25 6 -25 36 1 41 11 2 18 -5 21 -20 3
-17 5 -15 6 10 1 26 -3 32 -19 32 -11 0 -20 5 -20 11 0 7 15 10 40 7 36 -3 40
-1 45 24 8 37 7 44 -11 40 -19 -4 -18 14 1 22 21 8 47 -22 40 -48 -2 -11 -2
-15 1 -8 3 6 12 12 21 12 12 0 12 3 -2 17 -16 16 -16 17 0 29 20 15 16 44 -7
62 -24 18 -22 30 5 34 12 2 31 -6 41 -16 13 -13 21 -16 24 -8 2 7 11 12 20 12
13 0 13 3 4 12 -10 10 -3 16 30 30 48 19 71 23 48 8z m-220 -46 c0 -9 -44 -43
-55 -43 -5 0 -2 4 8 10 9 5 17 17 17 24 0 8 7 15 15 15 8 0 15 -3 15 -6z m47
-64 c2 -19 -8 -26 -20 -14 -7 7 2 34 12 34 4 0 7 -9 8 -20z m-120 -42 c-3 -8
-6 -5 -6 6 -1 11 2 17 5 13 3 -3 4 -12 1 -19z m-77 -138 c0 -5 -2 -10 -4 -10
-3 0 -8 5 -11 10 -3 6 -1 10 4 10 6 0 11 -4 11 -10z m1480 -110 c-17 -32 -56
-26 -69 12 -9 26 -8 35 5 50 16 17 18 17 46 -12 23 -25 27 -34 18 -50z m-1483
24 c-3 -3 -12 -4 -19 -1 -8 3 -5 6 6 6 11 1 17 -2 13 -5z m8403 -49 c-7 -14
-22 -25 -32 -25 -25 0 -23 7 10 35 32 28 40 24 22 -10z m-8394 -53 c-10 -11
-16 -12 -16 -4 0 7 5 12 10 12 6 0 11 10 11 23 1 18 2 19 6 3 3 -10 -2 -26
-11 -34z m8308 -19 c-9 -21 -27 -62 -41 -91 -31 -68 -34 -101 -9 -116 10 -6
31 -22 47 -36 l27 -25 -36 -78 -37 -79 -40 5 c-22 2 -57 11 -77 20 -35 15 -37
18 -28 41 7 19 4 30 -13 53 -31 40 -38 44 -77 40 -19 -2 -57 4 -85 14 -27 11
-59 19 -70 19 -19 1 -108 29 -130 41 -5 3 -44 16 -85 29 -126 39 -123 41 65
45 115 2 225 14 241 26 6 5 43 12 83 15 40 4 79 13 86 21 8 7 24 13 37 13 14
0 53 18 89 40 35 21 65 39 66 40 1 0 -5 -17 -13 -37z m-8354 18 c0 -12 -20
-25 -27 -18 -7 7 6 27 18 27 5 0 9 -4 9 -9z m1517 -342 c-2 -192 -7 -352 -9
-355 -3 -2 -13 5 -24 17 -18 19 -20 45 -26 338 -6 280 -5 318 9 334 9 9 25 17
36 17 19 0 20 -6 14 -351z m-1417 260 c0 -6 -4 -7 -10 -4 -5 3 -10 11 -10 16
0 6 5 7 10 4 6 -3 10 -11 10 -16z m-43 -21 c-3 -8 -6 -5 -6 6 -1 11 2 17 5 13
3 -3 4 -12 1 -19z m-27 -48 c0 -5 -5 -10 -11 -10 -5 0 -7 5 -4 10 3 6 8 10 11
10 2 0 4 -4 4 -10z m5985 -155 c44 -8 115 -15 159 -15 43 0 124 -7 180 -14 55
-8 139 -17 186 -19 75 -4 103 -12 240 -67 348 -139 589 -207 817 -232 l112
-12 -6 -61 c-12 -133 49 -327 119 -378 36 -27 174 -47 236 -35 26 5 78 18 115
29 38 12 71 18 74 15 3 -3 3 -17 -1 -31 -4 -17 -13 -25 -27 -25 -12 0 -85 -32
-163 -70 -136 -67 -229 -98 -212 -72 4 7 14 12 21 12 8 0 17 11 21 25 15 61
-24 74 -102 35 -31 -16 -62 -34 -70 -41 -21 -18 -75 -12 -619 70 -71 11 -161
22 -200 26 -38 3 -92 10 -120 15 -133 24 -247 40 -318 46 -88 7 -102 16 -117
77 -18 71 -112 277 -187 409 -23 43 -43 80 -43 84 0 17 44 -34 58 -66 8 -19
23 -48 34 -63 11 -15 38 -64 59 -108 22 -45 55 -104 73 -133 18 -29 39 -69 47
-90 7 -20 19 -42 25 -47 14 -11 41 -2 48 17 5 12 -136 300 -213 436 -61 106
-103 136 -127 89 l-12 -24 -16 31 c-8 16 -20 52 -26 78 -14 60 -42 92 -88 100
-26 5 -38 3 -47 -9 -10 -14 -16 -15 -38 -4 -45 21 -32 53 18 42 16 -3 66 -12
110 -20z m-1430 6 c124 -7 147 -11 205 -38 36 -16 85 -36 110 -43 29 -10 68
-36 110 -75 36 -33 84 -74 108 -89 24 -16 56 -46 73 -67 23 -30 40 -40 82 -49
43 -9 60 -19 100 -63 72 -77 76 -91 85 -239 13 -222 -12 -391 -79 -540 -27
-59 -49 -111 -49 -116 0 -21 -66 -73 -108 -85 -70 -20 -122 0 -192 74 -49 52
-55 63 -55 101 0 55 -21 60 -72 19 -21 -17 -60 -49 -88 -71 -27 -22 -61 -43
-75 -46 -14 -3 -41 -9 -61 -14 -70 -19 -159 -12 -254 19 -49 17 -132 34 -183
40 -104 11 -151 30 -305 125 -80 49 -93 54 -160 58 -87 6 -142 31 -186 87 -17
21 -31 43 -31 48 0 4 -10 26 -21 48 -36 66 -31 179 14 321 8 27 15 57 14 67 0
16 22 72 67 166 44 93 239 255 333 277 15 4 33 10 38 15 18 13 157 49 251 63
105 17 143 17 329 7z m-2509 -216 c76 -32 64 -69 -73 -220 -88 -97 -131 -139
-233 -230 l-26 -23 -59 55 c-33 30 -72 66 -87 80 -16 14 -28 31 -28 38 0 8 35
44 78 81 42 36 102 90 132 118 58 55 121 93 200 120 18 6 53 -1 96 -19z
m-1011 -14 c24 -1 49 -19 115 -83 175 -167 208 -198 330 -298 30 -24 171 -160
312 -301 220 -220 258 -263 268 -299 15 -56 5 -65 -73 -64 -80 2 -186 39 -269
95 -166 112 -461 342 -517 402 -40 43 -204 193 -270 247 -45 37 -86 98 -101
149 -11 38 10 129 34 147 10 7 42 10 79 9 34 -2 76 -3 92 -4z m7319 -36 c3 -9
19 -21 35 -26 16 -6 32 -20 36 -32 6 -21 7 -88 0 -95 -1 -2 -19 5 -39 14 -30
15 -36 23 -36 49 0 17 -7 41 -16 53 -16 23 -13 52 5 52 5 0 12 -7 15 -15z
m-166 -9 c4 -4 -48 -95 -58 -101 -5 -3 -12 -37 -16 -76 -5 -48 -11 -72 -21
-76 -9 -3 -26 -16 -39 -28 -18 -16 -43 -25 -90 -30 -62 -6 -68 -5 -121 27 -60
36 -94 85 -104 151 -5 37 -5 37 28 37 19 0 44 5 56 12 12 6 49 11 82 9 33 -1
75 -3 94 -4 30 -2 37 3 65 46 31 47 31 47 76 41 25 -3 46 -7 48 -8z m1191
-256 c32 -78 34 -120 8 -120 -19 0 -43 33 -82 110 l-35 70 22 10 c46 18 53 12
87 -70z m-934 -39 c-8 -46 -25 -65 -25 -27 0 27 20 79 28 72 2 -3 1 -23 -3
-45z m709 -34 c39 -80 47 -141 20 -151 -9 -3 -20 -3 -26 0 -14 9 -88 164 -88
184 0 14 30 37 51 39 4 1 23 -32 43 -72z m-1013 -1 c-12 -14 -71 -39 -71 -31
0 4 65 40 79 44 2 1 -2 -5 -8 -13z m323 -125 c49 -72 45 -84 -10 -31 -59 58
-68 74 -52 100 12 18 13 18 19 2 4 -9 23 -41 43 -71z m-7280 -270 l78 -79 -62
-51 c-34 -28 -94 -74 -134 -101 -40 -27 -90 -65 -111 -84 -69 -65 -100 -44
-89 63 6 61 12 79 49 131 38 54 173 200 185 200 3 0 41 -35 84 -79z"/>
<path d="M5085 13919 c-4 -6 -5 -12 -2 -15 2 -3 7 2 10 11 7 17 1 20 -8 4z"/>
<path d="M4376 10505 c-3 -8 -1 -15 4 -15 6 0 10 7 10 15 0 8 -2 15 -4 15 -2
0 -6 -7 -10 -15z"/>
<path d="M3172 10425 c-8 -17 -8 -25 -1 -25 6 0 8 -13 5 -32 -3 -18 -3 -27 0
-20 3 6 10 12 15 12 6 0 7 -4 4 -10 -3 -6 1 -7 9 -4 21 8 20 -14 -1 -38 -19
-22 -10 -36 12 -18 9 7 18 10 22 6 4 -3 -2 -13 -13 -21 -12 -9 -14 -14 -5 -13
18 4 51 35 51 48 0 6 -8 10 -17 10 -13 0 -14 3 -5 12 7 7 12 25 12 40 0 22 -5
28 -21 28 -11 0 -17 5 -14 10 3 6 -1 13 -10 16 -13 6 -14 8 -3 15 9 6 7 9 -8
9 -13 0 -25 -10 -32 -25z m33 -14 c3 -5 1 -12 -5 -16 -5 -3 -10 1 -10 9 0 18
6 21 15 7z"/>
<path d="M4348 10433 c6 -2 18 -2 25 0 6 3 1 5 -13 5 -14 0 -19 -2 -12 -5z"/>
<path d="M4300 10420 c0 -5 4 -10 9 -10 6 0 13 5 16 10 3 6 -1 10 -9 10 -9 0
-16 -4 -16 -10z"/>
<path d="M3694 10312 c-16 -11 -24 -52 -11 -52 7 0 5 -5 -4 -10 -13 -8 -15
-20 -11 -57 3 -27 10 -51 16 -55 7 -5 5 -8 -5 -8 -20 0 -27 -16 -23 -50 1 -14
3 -29 3 -33 1 -5 10 -6 20 -2 19 6 39 -11 26 -23 -3 -3 -10 0 -14 7 -6 8 -11
9 -15 3 -3 -6 3 -17 15 -25 15 -11 17 -16 7 -21 -10 -5 -10 -7 0 -12 6 -3 12
-12 12 -20 0 -8 7 -14 16 -14 14 0 14 -3 4 -15 -10 -12 -10 -15 4 -15 9 0 16
-8 16 -20 0 -28 20 -25 21 3 1 14 3 16 6 6 2 -10 15 -16 33 -17 26 -1 29 2 20
18 -7 14 -6 23 6 34 14 14 14 17 0 22 -12 4 -13 11 -5 32 7 18 6 28 -3 34 -10
6 -8 8 5 8 9 0 17 3 17 6 0 20 -36 134 -42 134 -4 0 -8 7 -8 16 0 35 -33 115
-46 110 -7 -3 -15 2 -18 10 -6 15 -24 18 -42 6z m6 -212 c0 -5 -5 -10 -11 -10
-5 0 -7 5 -4 10 3 6 8 10 11 10 2 0 4 -4 4 -10z m0 -30 c0 -5 -4 -10 -9 -10
-6 0 -13 5 -16 10 -3 6 1 10 9 10 9 0 16 -4 16 -10z"/>
<path d="M3256 10263 c-6 -14 -5 -15 5 -6 7 7 10 15 7 18 -3 3 -9 -2 -12 -12z"/>
<path d="M3995 9890 c-3 -5 -1 -10 4 -10 6 0 11 5 11 10 0 6 -2 10 -4 10 -3 0
-8 -4 -11 -10z"/>
<path d="M3800 9854 c0 -9 5 -14 12 -12 18 6 21 28 4 28 -9 0 -16 -7 -16 -16z"/>
<path d="M3565 8980 c-18 -8 -17 -9 8 -9 16 -1 26 3 22 9 -3 6 -7 10 -8 9 -1
0 -11 -4 -22 -9z"/>
<path d="M6961 12104 c0 -11 3 -14 6 -6 3 7 2 16 -1 19 -3 4 -6 -2 -5 -13z"/>
<path d="M9261 11788 c-8 -18 -13 -37 -12 -41 1 -5 -8 -11 -21 -15 -21 -5 -21
-6 -2 -13 16 -6 16 -8 2 -8 -19 -1 -42 -36 -34 -50 4 -6 76 5 94 15 1 1 -2 13
-7 28 -11 27 -3 34 15 16 7 -7 9 -1 6 20 -4 28 -22 43 -22 18 0 -6 -3 -9 -6
-5 -4 3 -2 20 4 36 15 41 0 40 -17 -1z m-21 -108 c0 -5 -4 -10 -10 -10 -5 0
-10 5 -10 10 0 6 5 10 10 10 6 0 10 -4 10 -10z"/>
<path d="M6084 11764 c3 -9 6 -18 6 -20 0 -2 5 -4 10 -4 6 0 10 9 10 20 0 12
-7 20 -16 20 -11 0 -14 -5 -10 -16z"/>
<path d="M6130 11736 c0 -15 -12 -21 -34 -17 -5 1 -6 -5 -3 -13 4 -9 2 -18 -3
-21 -14 -9 -12 -22 3 -28 8 -3 14 3 14 16 2 21 22 39 35 31 4 -3 8 4 8 15 0
11 -4 23 -10 26 -5 3 -10 -1 -10 -9z"/>
<path d="M7570 11730 c0 -5 5 -10 11 -10 5 0 7 5 4 10 -3 6 -8 10 -11 10 -2 0
-4 -4 -4 -10z"/>
<path d="M7610 11716 c0 -2 7 -9 15 -16 12 -10 15 -10 15 4 0 9 -7 16 -15 16
-8 0 -15 -2 -15 -4z"/>
<path d="M7330 11698 c0 -9 5 -20 10 -23 13 -8 13 5 0 25 -8 13 -10 13 -10 -2z"/>
<path d="M7430 11703 c0 -7 -7 -13 -15 -13 -19 0 -19 -11 -2 -35 10 -12 16
-14 21 -7 4 7 4 12 0 12 -3 0 -2 6 4 13 7 8 7 18 2 27 -7 10 -10 11 -10 3z"/>
<path d="M7481 11694 c0 -11 3 -14 6 -6 3 7 2 16 -1 19 -3 4 -6 -2 -5 -13z"/>
<path d="M7683 11698 c-2 -5 7 -8 21 -8 14 0 27 3 29 8 3 4 -6 7 -20 7 -14 0
-27 -3 -30 -7z"/>
<path d="M9297 11670 c-7 -26 6 -33 37 -19 l26 12 -26 14 c-33 16 -31 17 -37
-7z"/>
<path d="M7670 11670 c0 -5 7 -10 16 -10 8 0 12 5 9 10 -3 6 -10 10 -16 10 -5
0 -9 -4 -9 -10z"/>
<path d="M7898 11663 c6 -2 18 -2 25 0 6 3 1 5 -13 5 -14 0 -19 -2 -12 -5z"/>
<path d="M6008 11653 c-25 -6 -23 -23 2 -23 11 0 20 -7 20 -15 0 -8 5 -15 11
-15 5 0 7 5 3 11 -3 6 -1 15 6 19 17 10 -17 28 -42 23z"/>
<path d="M7640 11650 c0 -5 5 -10 10 -10 6 0 10 5 10 10 0 6 -4 10 -10 10 -5
0 -10 -4 -10 -10z"/>
<path d="M7770 11651 c0 -5 9 -11 21 -14 16 -4 18 -3 8 9 -13 16 -29 19 -29 5z"/>
<path d="M7942 11644 c-7 -8 -8 -14 -3 -14 10 0 25 19 20 25 -2 1 -10 -3 -17
-11z"/>
<path d="M9163 11640 c-3 -11 -10 -20 -15 -20 -6 0 -8 -11 -6 -25 3 -14 1 -25
-3 -25 -5 0 -9 -4 -9 -10 0 -5 12 -10 26 -10 19 0 25 4 20 15 -3 9 0 15 10 15
8 0 12 5 9 11 -4 6 -14 8 -22 5 -8 -3 -11 -1 -8 4 9 15 16 60 9 60 -3 0 -8 -9
-11 -20z"/>
<path d="M7260 11630 c0 -11 5 -20 10 -20 6 0 10 9 10 20 0 11 -4 20 -10 20
-5 0 -10 -9 -10 -20z"/>
<path d="M8020 11635 c0 -8 5 -15 10 -15 6 0 10 7 10 15 0 8 -4 15 -10 15 -5
0 -10 -7 -10 -15z"/>
<path d="M9014 11640 c-27 -11 -36 -25 -40 -62 -3 -20 0 -28 9 -25 6 2 12 18
12 34 0 38 8 48 32 38 17 -7 17 -8 -2 -15 -17 -7 -17 -9 -2 -9 15 -1 57 31 57
44 0 8 -43 5 -66 -5z"/>
<path d="M9206 11641 c-3 -5 0 -11 8 -14 8 -3 17 1 20 9 6 15 -19 20 -28 5z"/>
<path d="M6506 11631 c-4 -7 -5 -15 -2 -18 9 -9 19 4 14 18 -4 11 -6 11 -12 0z"/>
<path d="M7698 11633 c7 -3 16 -2 19 1 4 3 -2 6 -13 5 -11 0 -14 -3 -6 -6z"/>
<path d="M7858 11633 c7 -3 16 -2 19 1 4 3 -2 6 -13 5 -11 0 -14 -3 -6 -6z"/>
<path d="M6691 11620 c2 -8 -1 -30 -5 -48 -5 -22 -4 -38 4 -47 14 -17 35 -20
25 -5 -4 7 3 9 22 5 15 -3 21 -2 13 2 -24 11 -35 26 -38 58 -2 17 -8 35 -14
40 -6 7 -9 5 -7 -5z"/>
<path d="M7410 11620 c0 -5 5 -10 10 -10 6 0 10 5 10 10 0 6 -4 10 -10 10 -5
0 -10 -4 -10 -10z"/>
<path d="M6470 11610 c0 -5 5 -10 10 -10 6 0 10 5 10 10 0 6 -4 10 -10 10 -5
0 -10 -4 -10 -10z"/>
<path d="M7868 11603 c12 -2 32 -2 45 0 12 2 2 4 -23 4 -25 0 -35 -2 -22 -4z"/>
<path d="M6738 11573 c7 -3 16 -2 19 1 4 3 -2 6 -13 5 -11 0 -14 -3 -6 -6z"/>
<path d="M6930 11570 c0 -5 7 -7 15 -4 8 4 15 8 15 10 0 2 -7 4 -15 4 -8 0
-15 -4 -15 -10z"/>
<path d="M8380 11570 c-8 -5 -11 -12 -7 -16 4 -4 13 -2 19 4 15 15 7 24 -12
12z"/>
<path d="M9095 11529 c-11 -17 1 -21 15 -4 8 9 8 15 2 15 -6 0 -14 -5 -17 -11z"/>
<path d="M9130 11530 c0 -5 7 -10 15 -10 8 0 15 5 15 10 0 6 -7 10 -15 10 -8
0 -15 -4 -15 -10z"/>
<path d="M9115 11499 c-4 -6 -5 -13 -2 -16 7 -7 27 6 27 18 0 12 -17 12 -25
-2z"/>
<path d="M6495 11480 c-3 -5 -2 -10 4 -10 5 0 13 5 16 10 3 6 2 10 -4 10 -5 0
-13 -4 -16 -10z"/>
<path d="M6129 11383 c-13 -16 -12 -17 4 -4 16 13 21 21 13 21 -2 0 -10 -8
-17 -17z"/>
<path d="M11520 11315 c-5 -13 -17 -32 -27 -43 -42 -42 -46 -51 -33 -67 10
-13 9 -15 -9 -15 -23 0 -37 -36 -28 -70 3 -11 1 -18 -3 -15 -5 3 -14 -3 -19
-14 -6 -11 -20 -23 -31 -26 -11 -3 -20 -12 -20 -18 0 -7 -18 -34 -40 -61 -45
-54 -50 -75 -19 -83 12 -4 18 -11 15 -20 -3 -7 2 -17 11 -20 10 -4 19 -1 21 6
2 7 24 37 48 67 29 35 44 63 44 82 0 20 12 40 41 67 54 52 66 84 68 178 1 81
-3 93 -19 52z"/>
<path d="M12043 11214 c-7 -3 -9 -12 -6 -19 4 -12 7 -12 19 0 23 22 17 31 -13
19z"/>
<path d="M12020 11143 c-8 -2 -28 -23 -43 -47 -33 -52 -36 -77 -7 -51 11 10
20 29 20 41 0 15 5 22 13 18 7 -2 21 4 31 15 18 20 12 30 -14 24z"/>
<path d="M12140 11416 c0 -9 5 -16 10 -16 6 0 10 4 10 9 0 6 -4 13 -10 16 -5
3 -10 -1 -10 -9z"/>
<path d="M13110 8490 c0 -5 5 -10 10 -10 6 0 10 5 10 10 0 6 -4 10 -10 10 -5
0 -10 -4 -10 -10z"/>
<path d="M9448 6647 c-7 -7 -33 -21 -58 -32 -25 -10 -52 -25 -61 -32 -8 -7
-19 -13 -24 -13 -4 0 -23 -11 -41 -25 -18 -14 -35 -25 -39 -25 -3 0 -23 -13
-43 -30 -20 -16 -57 -38 -82 -49 -52 -23 -74 -49 -124 -150 -43 -86 -44 -108
-11 -123 34 -15 50 0 76 74 25 67 70 115 145 154 27 15 58 35 70 45 11 11 23
19 27 19 14 0 114 75 160 121 32 31 45 52 41 63 -7 19 -18 20 -36 3z"/>
<path d="M10937 5517 c-3 -7 -3 -41 -1 -76 6 -109 60 -171 100 -116 16 21 9
94 -12 142 -23 50 -75 80 -87 50z"/>
<path d="M10742 5388 c-40 -40 25 -223 78 -223 23 0 25 4 28 57 2 46 -2 66
-24 108 -14 28 -35 55 -45 60 -22 12 -23 12 -37 -2z"/>
<path d="M9349 4130 c-42 -7 -135 -51 -196 -92 -33 -23 -45 -39 -53 -71 -6
-23 -13 -48 -16 -56 -3 -9 2 -12 16 -8 11 3 20 1 20 -3 0 -5 26 7 58 26 31 19
74 42 95 51 20 9 37 20 37 25 0 4 8 8 18 8 11 0 27 9 37 20 10 11 24 20 32 20
11 0 27 41 25 67 -1 13 -37 19 -73 13z"/>
<path d="M7070 3705 c0 -52 32 -121 60 -128 26 -7 30 0 30 55 0 74 -29 118
-76 118 -10 0 -14 -13 -14 -45z"/>
<path d="M6818 3678 c-8 -114 23 -195 71 -186 13 3 16 18 16 79 -1 100 -29
159 -75 159 -4 0 -10 -24 -12 -52z"/>
<path d="M7409 5716 c-2 -2 -47 -11 -99 -20 -53 -9 -117 -27 -143 -41 -27 -14
-53 -25 -59 -25 -17 0 -138 -59 -138 -67 1 -45 80 -55 153 -20 88 42 190 72
281 83 46 6 73 2 132 -16 68 -22 108 -21 74 0 -8 6 -10 10 -4 10 5 0 10 16 11
35 1 33 -1 35 -52 50 -48 14 -146 21 -156 11z"/>
<path d="M13288 4833 c-15 -10 -30 -23 -32 -30 -9 -22 24 -43 67 -43 23 0 80
-14 127 -30 47 -16 95 -30 106 -30 58 0 25 92 -46 128 -57 28 -180 31 -222 5z"/>
<path d="M2408 4166 c-10 -7 -15 -16 -11 -19 3 -4 -2 -10 -11 -13 -14 -5 -15
-9 -4 -15 10 -7 10 -9 1 -9 -7 0 -13 -4 -13 -10 0 -5 7 -10 15 -10 8 0 15 -4
15 -8 0 -7 32 -8 47 -3 1 1 -2 12 -7 26 -11 29 -3 33 15 8 8 -11 14 -13 19 -5
4 7 2 12 -3 12 -6 0 -11 12 -11 26 0 22 -3 24 -14 15 -11 -10 -15 -9 -18 3 -2
12 -6 12 -20 2z"/>
<path d="M2414 4020 c0 -22 4 -24 26 -10 13 9 13 11 0 20 -22 14 -26 12 -26
-10z"/>
<path d="M1876 3703 c9 -38 14 -42 14 -10 0 14 -5 29 -10 32 -7 4 -8 -3 -4
-22z"/>
<path d="M1880 3612 c0 -5 7 -13 16 -16 10 -4 14 -1 12 6 -5 15 -28 23 -28 10z"/>
<path d="M2655 3591 c-3 -5 -1 -12 5 -16 5 -3 10 1 10 9 0 18 -6 21 -15 7z"/>
<path d="M2600 3550 c0 -5 7 -10 15 -10 8 0 15 5 15 10 0 6 -7 10 -15 10 -8 0
-15 -4 -15 -10z"/>
<path d="M11025 2189 c-33 -17 -80 -41 -105 -54 -57 -29 -77 -50 -55 -58 17
-7 92 18 115 38 8 7 46 28 83 45 66 32 88 60 45 60 -13 0 -50 -14 -83 -31z"/>
<path d="M2295 3230 c-3 -5 -1 -10 4 -10 6 0 11 5 11 10 0 6 -2 10 -4 10 -3 0
-8 -4 -11 -10z"/>
<path d="M2331 3204 c1 -21 16 -47 21 -38 4 5 0 18 -8 29 -8 10 -14 15 -13 9z"/>
<path d="M2320 3139 c0 -5 5 -7 10 -4 6 3 10 8 10 11 0 2 -4 4 -10 4 -5 0 -10
-5 -10 -11z"/>
<path d="M2260 3055 c0 -8 4 -15 9 -15 5 0 14 7 21 15 10 13 9 15 -9 15 -12 0
-21 -6 -21 -15z"/>
<path d="M2037 3113 c-12 -11 -8 -23 7 -23 8 0 16 7 20 15 5 15 -14 21 -27 8z"/>
<path d="M2016 3072 c-3 -6 -1 -14 5 -17 15 -10 25 3 12 16 -7 7 -13 7 -17 1z"/>
<path d="M2092 2968 c-12 -16 3 -62 17 -53 6 3 8 12 4 20 -3 9 0 22 7 30 10
12 10 15 -3 15 -8 0 -19 -6 -25 -12z"/>
<path d="M2139 2963 c-5 -79 -4 -93 6 -93 14 0 17 87 4 96 -5 3 -9 2 -10 -3z"/>
<path d="M2170 2940 c0 -5 5 -10 10 -10 6 0 10 5 10 10 0 6 -4 10 -10 10 -5 0
-10 -4 -10 -10z"/>
<path d="M1848 2783 c7 -3 16 -2 19 1 4 3 -2 6 -13 5 -11 0 -14 -3 -6 -6z"/>
<path d="M6670 1980 c-5 -9 -7 -20 -4 -22 8 -9 12 -231 4 -258 -4 -14 -10 -64
-14 -111 -7 -81 -6 -87 13 -92 25 -6 45 15 64 68 8 22 25 65 37 95 24 60 35
152 25 216 -10 71 -102 147 -125 104z"/>
<path d="M14568 11093 c-9 -2 -42 -41 -72 -86 -30 -45 -84 -122 -120 -171 -36
-49 -66 -94 -66 -101 0 -7 -6 -18 -14 -24 -22 -18 -29 -68 -16 -102 7 -16 16
-29 21 -29 5 0 9 -5 9 -10 0 -14 67 -81 100 -102 14 -9 37 -32 50 -52 43 -63
65 -57 133 32 77 100 229 362 235 404 4 36 1 42 -59 105 -140 147 -146 151
-201 136z m52 -93 c0 -5 -4 -10 -10 -10 -5 0 -10 5 -10 10 0 6 5 10 10 10 6 0
10 -4 10 -10z m98 -93 c21 -20 30 -47 15 -47 -9 0 -63 62 -63 73 0 10 18 0 48
-26z"/>
<path d="M14985 10621 c-3 -5 -1 -12 5 -16 5 -3 10 1 10 9 0 18 -6 21 -15 7z"/>
</g>
</svg>
